<?xml version="1.0" standalone="no"?>
<!DOCTYPE svg PUBLIC "-//W3C//DTD SVG 1.1//EN" "http://www.w3.org/Graphics/SVG/1.1/DTD/svg11.dtd" >
<svg xmlns="http://www.w3.org/2000/svg">
<metadata></metadata>
<defs>
<font id="prototyperegular" horiz-adv-x="1456" >
<font-face units-per-em="2048" ascent="1638" descent="-410" />
<missing-glyph horiz-adv-x="577" />
<glyph horiz-adv-x="0" />
<glyph unicode="&#xd;" horiz-adv-x="577" />
<glyph unicode=" "  horiz-adv-x="577" />
<glyph unicode="&#x09;" horiz-adv-x="577" />
<glyph unicode="&#xa0;" horiz-adv-x="577" />
<glyph unicode="!" horiz-adv-x="468" d="M84 20q0 -20 20 -20h244q20 0 21 20v242q0 20 -21 21h-244q-20 0 -20 -21v-242zM84 455q0 -20 20 -21h244q20 0 21 21v993q0 20 -21 20h-244q-20 0 -20 -20v-993z" />
<glyph unicode="&#x22;" horiz-adv-x="735" d="M76 1001q-2 -20 18 -20h178q20 0 23 20l39 447q2 20 -19 20h-180q-20 0 -22 -20zM399 1001q-2 -20 19 -20h178q20 0 22 20l39 447q2 20 -18 20h-180q-20 0 -23 -20z" />
<glyph unicode="#" horiz-adv-x="1452" d="M45 383q-6 -20 16 -21h207q10 -2 6 -20l-53 -246l-16 -76q-6 -20 16 -20h230q18 0 24 20l4 19l66 303q6 18 16 20h172q10 -2 6 -20l-69 -322q-6 -20 16 -20h229q18 0 25 20l4 19l27 123l39 180q6 18 16 20h205q18 0 24 21l50 229q2 20 -17 21h-205q-8 2 -6 20l35 164 q2 16 16 21h205q18 0 25 20l49 227q6 20 -16 21h-207q-8 2 -6 20l30 144l39 178q6 20 -16 20h-230q-18 0 -24 -20l-4 -18l-66 -304q-4 -18 -12 -20h-178q-10 2 -6 20l39 179l30 143q6 20 -16 20h-229q-18 0 -25 -20l-70 -322q-6 -18 -16 -20h-197q-23 0 -24 -21l-51 -227 q-6 -20 16 -20h201q10 -2 6 -21l-13 -51l-24 -113q-6 -18 -16 -20h-201q-18 0 -25 -21zM610 653l13 54l22 110q2 16 17 21h172q10 -2 6 -21l-31 -143l-4 -21q-7 -18 -17 -20h-172q-8 2 -6 20z" />
<glyph unicode="$" horiz-adv-x="1212" d="M53 1034q0 -47 7.5 -95t22.5 -94t38.5 -86t58.5 -69q53 -45 121 -61.5t127 -18.5h78q20 0 20 -20v-303q0 -20 -20 -21h-406q-20 0 -20 -20v-226q0 -20 20 -20h406q20 0 20 -20v-107h162v107q0 20 21 20h137q45 0 95 27.5t85 56.5q115 100 131 287q4 16 4 35v43 q0 47 -6 98t-21.5 98t-39 88t-58.5 70q-53 45 -118.5 62.5t-124.5 19.5h-82q-20 0 -21 20v277q0 20 21 20h344q20 0 20 21v225q0 20 -20 20h-344q-21 1 -21 21v102h-164v-102q0 -20 -20 -21h-139q-47 -4 -95.5 -28.5t-81.5 -53.5q-119 -98 -133 -276q-4 -18 -4 -37v-39z M362 1047q0 20 2.5 40.5t12.5 40.5q10 23 33.5 48.5t52.5 25.5h43q20 0 20 -20v-277q0 -20 -20 -20q-35 0 -64.5 6t-46.5 27q-25 27 -29 61.5t-4 67.5zM690 287v303q0 20 21 20q37 -4 68.5 -13t47.5 -28q25 -29 29 -64.5t4 -68.5q0 -23 -2 -43t-12 -43q-10 -25 -32.5 -54.5 t-53.5 -29.5h-49q-21 1 -21 21z" />
<glyph unicode="%" horiz-adv-x="1892" d="M59 956v279q0 14 4 35q31 166 207 194q25 4 41 4h228q211 0 245 -198q4 -23 4 -35v-279q0 -12 -4 -34q-29 -168 -206 -197q-27 -4 -39 -4h-228q-16 0 -41 4q-176 29 -207 197q-6 30 -4 34zM307 1059q0 -37 21.5 -59.5t48.5 -22.5h96q25 0 51 20q18 25 19 62v74 q0 82 -70 81h-96q-39 0 -60 -34q-10 -14 -10 -47v-74zM416 12q0 -12 18 -12h228q16 0 23 6t13 17l779 1423q4 8 4 10q0 12 -19 12h-227q-16 0 -23.5 -6t-13.5 -16l-778 -1423q-4 -8 -4 -11zM1102 238v276q0 55 26 111q59 125 226 125h229q29 0 57 -7q193 -43 193 -229v-276 q0 -106 -70.5 -171t-179.5 -65h-229q-205 0 -248 199q-4 23 -4 37zM1350 338q-1 -82 71 -82h92q55 0 70 47q4 12 4 35v74q0 39 -18 61q-29 23 -56 23h-92q-53 0 -67 -47q-4 -12 -4 -37v-74z" />
<glyph unicode="&#x26;" horiz-adv-x="1269" d="M63 313q0 -150 97.5 -231.5t257.5 -81.5h280q123 0 205 34t117 70l76 82q12 16 32 4l68 -45q16 -10 29 7l118 180q12 16 -8 35l-168 116q-25 18 -24 47v269q0 20 -21 20h-219q-20 0 -20 -20v-82q-2 -27 -33 -6l-328 233q-74 53 -105.5 88t-31.5 68q0 47 32 76.5t97 29.5 h328q20 0 20 21v221q0 20 -20 20h-402q-340 0 -340 -333q0 -53 7.5 -92t21.5 -70t35.5 -58.5t50.5 -54.5q23 -20 23 -31q0 -8 -23 -20q-39 -23 -67.5 -55.5t-47 -71.5t-28 -80t-9.5 -80v-209zM344 420q0 41 9 80t27.5 68.5t44 47t58.5 17.5q14 0 25.5 -6t26.5 -17l276 -196 q10 -8 19.5 -19.5t9.5 -23.5q0 -4 -4.5 -19.5t-19.5 -33t-46 -32t-82 -14.5h-151q-92 0 -142.5 29t-50.5 119z" />
<glyph unicode="'" horiz-adv-x="391" d="M68 1001q-2 -20 18 -20h178q20 0 23 20l39 447q2 20 -19 20h-180q-20 0 -23 -20z" />
<glyph unicode="(" horiz-adv-x="550" d="M76 100v1268q0 70 23.5 130.5t60.5 127.5q8 14 21.5 28.5t29.5 14.5h289q8 0 8 -6q0 -4 -2 -6l-29 -31q-70 -76 -98 -158q-25 -72 -25 -184v-1100q0 -115 25 -184q29 -82 98 -158l29 -30q2 -2 2 -7q0 -6 -8 -6h-289q-16 0 -29.5 15.5t-21.5 27.5q-41 63 -62.5 126 t-21.5 132z" />
<glyph unicode=")" horiz-adv-x="550" d="M74 -59q0 -6 8 -7h289q16 0 29.5 15.5t21.5 27.5q41 63 62.5 126t21.5 133v997q0 70 -23.5 130t-60.5 128q-8 14 -21.5 28.5t-29.5 14.5h-289q-8 0 -8 -6q0 -4 2 -6l28 -31q70 -76 99 -158q25 -72 24 -184v-830q0 -115 -24 -184q-29 -82 -99 -158l-28 -30q-2 -2 -2 -6z " />
<glyph unicode="*" horiz-adv-x="788" d="M16 1102q0 -14 15 -19l227 -57l-106 -158q-10 -14 2 -25.5t24 -2.5l160 108l57 -221q4 -14 19.5 -15t19.5 13l62 223l143 -98q12 -10 24.5 1t2.5 23l-97 152l228 59q14 4 14 19q0 16 -14 20l-226 62l119 164q8 14 -3 25t-25 3l-170 -114l-58 213q-4 16 -19.5 15 t-19.5 -17l-57 -220l-168 123q-14 8 -25.5 -3t-3.5 -25l115 -170l-225 -58q-14 -4 -15 -20z" />
<glyph unicode="+" horiz-adv-x="1134" d="M16 608q0 -20 21 -20h389q20 0 20 -21v-389q0 -20 21 -20h201q20 0 20 20v389q0 20 21 21h389q20 0 20 20v191q0 20 -20 20h-389q-20 0 -21 21v389q0 20 -20 20h-201q-20 0 -21 -20v-393q0 -16 -20 -17h-389q-20 0 -21 -20v-191z" />
<glyph unicode="," horiz-adv-x="432" d="M76 20q0 -20 20 -20h45h9q4 0 6 -2q4 -4 -2 -14l-68 -144q-6 -12 16 -12h109q8 0 9 3t3 7l127 170q2 4 2 12v236q0 20 -20 20h-236q-20 0 -20 -20v-236z" />
<glyph unicode="-" horiz-adv-x="714" d="M84 526q0 -20 20 -20h504q20 0 21 20v222q0 20 -21 20h-504q-20 0 -20 -18v-224z" />
<glyph unicode="." horiz-adv-x="428" d="M78 20q0 -20 20 -20h236q20 0 20 20v236q0 20 -20 20h-236q-20 0 -20 -20v-236z" />
<glyph unicode="/" horiz-adv-x="1085" d="M10 12q0 -12 19 -12h227q16 0 23.5 6t13.5 17l778 1423q4 8 4 10q0 12 -18 12h-228q-16 0 -23 -6t-13 -16l-779 -1423q-4 -8 -4 -11z" />
<glyph unicode="0" horiz-adv-x="1271" d="M80 391v111v651q0 154 87 234.5t241 80.5h454q150 0 240 -80.5t90 -234.5v-762q0 -109 -23.5 -183.5t-66.5 -120.5t-104.5 -66.5t-137.5 -20.5h-411q-94 0 -163 20.5t-115 66.5t-68.5 121t-22.5 183zM356 418q0 -82 36 -122t124 -40h2h234q100 0 133 40t33 122v635 q0 29 -9.5 57.5t-30 51t-51 36.5t-75.5 14h-234q-72 0 -117 -36.5t-45 -122.5v-635z" />
<glyph unicode="1" horiz-adv-x="512" d="M51 1233q0 -20 21 -21h55q20 0 20 -20v-1172q1 -20 21 -20h235q20 0 21 20v1373q0 37 -20.5 56t-55.5 19h-276q-20 0 -21 -20v-215z" />
<glyph unicode="2" horiz-adv-x="1161" d="M78 20q0 -20 20 -20h944q20 0 21 20v216q-1 20 -21 20h-624q-20 0 -21 20v158q0 37 27 61.5t71 44t102 38t122 40.5q111 39 182.5 73t113.5 81t58.5 115.5t16.5 179.5q0 63 -24 134t-73 130.5t-127 98t-186 38.5h-539q-20 0 -20 -20v-215q0 -20 20 -21h539q39 0 64.5 -16 t41 -39.5t20.5 -48.5t5 -41q0 -53 -30.5 -90t-79 -64.5t-109 -48t-120.5 -38t-113.5 -36t-88.5 -40.5q-37 -25 -71.5 -53.5t-61 -68.5t-43 -96.5t-16.5 -138.5v-373z" />
<glyph unicode="3" horiz-adv-x="1236" d="M84 20q0 -20 20 -20h709q82 0 146.5 33t110.5 87t70.5 124.5t24.5 144.5q0 104 -17.5 183t-74.5 145q-12 16 -36.5 33.5t-24.5 23.5t24.5 16.5t36.5 20.5q57 45 71.5 107.5t14.5 148.5q0 186 -123 293.5t-360 107.5h-572q-20 0 -20 -20v-215q0 -20 20 -21h596 q27 0 52.5 -12t46 -31.5t33 -46t12.5 -55.5q0 -27 -12.5 -54.5t-33 -49t-46 -36t-52.5 -14.5h-438q-20 0 -20 -20v-215q0 -20 20 -21h352q82 0 130.5 -23.5t73 -58t31.5 -73.5t7 -68q0 -31 -13.5 -61.5t-37 -57t-53 -43t-62.5 -16.5h-586q-20 0 -20 -20v-216z" />
<glyph unicode="4" horiz-adv-x="1269" d="M20 311q0 -20 21 -20h713q20 0 20 -21v-250q1 -20 21 -20h268q20 0 20 20v250q0 20 21 21h94q12 0 12 20v215q0 20 -20 21h-86q-20 0 -21 20v854q0 25 -45 36t-100 11h-219q-20 0 -36.5 -4t-33.5 -24l-612 -774q-8 -10 -12.5 -18.5t-4.5 -22.5v-314zM356 555q0 10 3 15 t10 14l370 506q6 6 14.5 17t14.5 11t6 -14v-537q0 -20 -20 -20h-373q-8 0 -16.5 1t-8.5 7z" />
<glyph unicode="5" horiz-adv-x="1284" d="M84 20q0 -20 20 -20h654q127 0 214 36t141 98.5t79 146.5t25 180q0 76 -12.5 155.5t-58.5 145t-138.5 107.5t-249.5 42h-346q-20 0 -21 21v260q0 20 21 20h708q20 0 21 21v215q0 20 -21 20h-1016q-20 0 -20 -20v-782q0 -20 20 -21h627q33 0 64.5 -5t56.5 -23.5t39 -55.5 t14 -100q0 -102 -53 -153.5t-121 -51.5h-627q-20 0 -20 -20v-216z" />
<glyph unicode="6" horiz-adv-x="1228" d="M76 317q0 -39 16.5 -93t48 -104t79.5 -85t114 -35h538q98 0 155.5 47t86.5 112.5t37 138.5t8 124v137q0 72 -25.5 139.5t-64.5 114.5q-41 53 -96 77.5t-139 24.5h-314q-53 0 -92 -19t-55 -19q-10 0 -11 14v170q0 29 14.5 56.5t38 49t54.5 33.5t63 12h5h512q20 0 20 21 v215q0 20 -20 20h-512q-127 0 -214 -34.5t-142.5 -93t-80 -136.5t-24.5 -164v-723zM362 434v58q0 63 28 96t71 48t95 17t101 2q43 0 82 -6t69 -23.5t47 -50t17 -83.5v-58q0 -47 -3 -79.5t-15 -52t-35.5 -28t-64.5 -8.5h-238q-29 0 -56.5 5t-49 22.5t-35 51.5t-13.5 89z" />
<glyph unicode="7" horiz-adv-x="1091" d="M74 1233v215q0 20 20 20h879q31 0 63.5 -20.5t32.5 -63.5v-139q0 -18 -4 -30.5t-21 -40.5l-632 -1143q-6 -10 -16.5 -20.5t-20.5 -10.5h-264q-10 0 -16.5 7t-6.5 16q0 6 2 8l664 1155q2 4 2 10q0 16 -19 16h-643q-20 0 -20 21z" />
<glyph unicode="8" horiz-adv-x="1263" d="M70 416q0 -139 32.5 -223t100 -129.5t174 -60.5t254.5 -15q147 0 253.5 15t175 60.5t101.5 129t33 223.5q0 145 -40 218t-118 105q-10 4 -10 9q0 2 10 8q47 23 85 94.5t38 193.5q0 164 -46 252t-120.5 129t-170 48.5t-191.5 7.5t-191.5 -7.5t-170 -48.5t-121 -129 t-46.5 -252q0 -123 39 -194.5t84 -93.5q10 -6 11 -8q0 -4 -11 -9q-78 -33 -116.5 -105.5t-38.5 -217.5zM365 446q0 57 24.5 96.5t62 64t85 34.5t94.5 10q45 0 93 -10t86 -34.5t62.5 -64t24.5 -96.5q0 -31 -12.5 -67.5t-43 -68t-81.5 -53t-129 -21.5t-129 21.5t-82 53 t-43 68.5t-12 67zM391 1049v20q0 47 21.5 77t55.5 46t77 21.5t86 5.5t87 -5.5t77.5 -21.5t55 -46t21.5 -77v-20q0 -104 -66.5 -142.5t-174.5 -38.5q-109 0 -174.5 38t-65.5 143z" />
<glyph unicode="9" horiz-adv-x="1257" d="M68 928q0 -35 6 -74t18 -76t28.5 -68.5t35.5 -56.5q20 -27 39.5 -46t43 -31.5t54.5 -18.5t72 -6h385q39 -2 63.5 8t38.5 20.5t20.5 13.5t6.5 -11v-168q0 -59 -30.5 -104.5t-98.5 -43.5h-568q-20 0 -20 -20v-226q0 -20 20 -20h506q125 0 218 34t153.5 92t90.5 136t30 164 v723q0 53 -16.5 110.5t-52.5 103.5t-90 75.5t-130 29.5h-498q-98 0 -161.5 -47t-99.5 -114.5t-50 -141t-14 -125.5v-112zM367 981v57q0 59 25.5 93t65.5 49.5t89 18.5t96 3q45 0 87 -4t74 -21.5t52.5 -50t20.5 -88.5v-57q0 -47 -19.5 -80t-50.5 -52.5t-71 -27.5t-81 -8h-106 q-29 0 -61.5 5t-59.5 22.5t-44 51.5t-17 89z" />
<glyph unicode=":" horiz-adv-x="440" d="M74 20q0 -20 20 -20h236q20 0 20 20v236q0 20 -20 20h-236q-20 0 -20 -20v-236zM74 936q0 -20 20 -21h236q20 0 20 21v235q0 20 -20 21h-236q-20 0 -20 -21v-235z" />
<glyph unicode=";" horiz-adv-x="442" d="M74 12q0 -20 20 -20h45h8t7 -2q4 -4 -2 -15l-68 -143q-6 -12 16 -12h109q8 0 9 3t3 7l127 170q2 4 2 12v236q0 20 -20 20h-236q-20 0 -20 -20v-236zM74 936q0 -20 20 -21h236q20 0 20 21v235q0 20 -20 21h-236q-20 0 -20 -21v-235z" />
<glyph unicode="&#x3c;" horiz-adv-x="1144" d="M12 651q0 -35 33 -45l922 -319q4 -2 10 -2q18 0 24 16l66 195q2 4 2 12q0 10 -10 14l-506 174q-27 8 -27 19q0 10 27 18l506 174q10 4 10 15q0 8 -2 12l-66 194q-6 16 -24 17q-6 0 -10 -2l-922 -320q-33 -10 -33 -45v-127z" />
<glyph unicode="=" horiz-adv-x="1363" d="M84 360q0 -20 20 -20h1156q20 0 20 20v207q0 20 -20 21h-1156q-20 0 -20 -21v-207zM84 840q0 -20 20 -21h1156q20 0 20 21v207q0 20 -20 20h-1156q-20 0 -20 -20v-207z" />
<glyph unicode="&#x3e;" horiz-adv-x="1144" d="M74 508q0 10 10 14l506 174q27 8 26 19q0 10 -26 18l-506 174q-10 4 -10 15q0 8 2 12l65 194q6 16 25 17q6 0 10 -2l922 -320q32 -10 32 -45v-127q0 -35 -32 -45l-922 -319q-4 -2 -10 -2q-18 0 -25 16l-65 195q-2 4 -2 12z" />
<glyph unicode="?" horiz-adv-x="1112" d="M57 1223q0 -20 21 -21h592q35 0 57.5 -16.5t34.5 -41t17 -51t5 -46.5q0 -78 -25.5 -119t-111.5 -41q-100 0 -173 -34t-121 -92.5t-70.5 -136t-22.5 -167.5v-103q0 -20 21 -20h256q20 0 20 20v103q0 39 6 67.5t22.5 48t48.5 28.5t83 9q193 0 277.5 115t84.5 309 q0 78 -20.5 156t-63.5 139.5t-107.5 100t-152.5 38.5h-657q-20 0 -21 -20v-225zM260 20q0 -20 21 -20h256q20 0 20 20v238q0 20 -20 21h-256q-20 0 -21 -21v-238z" />
<glyph unicode="@" horiz-adv-x="1542" d="M74 469q0 -115 35.5 -202t101 -146.5t158 -90t206.5 -30.5h396q195 0 311.5 77t167.5 230q4 12 -8 12h-201q-12 0 -16 -10q-27 -53 -89.5 -76.5t-158.5 -23.5h-404q-154 0 -217 57q-72 61 -71 209v512q0 152 67.5 211t220.5 59h404q150 0 218.5 -61t68.5 -209v-211 q0 -76 -33 -121t-98 -73q-4 -2 -7.5 -4.5t-7.5 -2.5q-6 0 -6 9v270q0 47 -11 94t-36 86t-63.5 62.5t-94.5 23.5h-418q-14 0 -14 -14v-152q0 -16 14 -16h390q23 0 38 -19.5t15 -39.5q0 -27 -23.5 -45.5t-60.5 -18.5h-248q-45 0 -75.5 -24.5t-50 -61.5t-28 -79t-8.5 -79 q0 -18 6.5 -55t21.5 -73.5t44 -64.5t72 -28h393q55 0 104 5t95 22q61 20 115 57t95 87t65 112.5t24 134.5v225q0 236 -131.5 355.5t-370.5 119.5h-396q-236 0 -366 -118q-135 -123 -135 -357v-524zM608 586q0 23 11.5 39t33.5 16h265q14 0 14 -14v-88q0 -15 -14 -15h-254 q-29 0 -42.5 19.5t-13.5 42.5z" />
<glyph unicode="A" d="M43 12q0 -12 16 -12h267q20 0 26 20l109 351q6 23 26 22h482q20 0 26 -20l109 -355q6 -18 26 -18h269q14 0 14 12l-412 1336q-25 80 -91 100t-183 20q-113 0 -178.5 -20.5t-89.5 -99.5zM559 688q0 2 1 4t1 6l144 467q12 37 22 37t14 -7t11 -30l143 -467q0 -4 1 -6t1 -4 q0 -14 -16 -14h-306q-16 0 -16 14z" />
<glyph unicode="B" horiz-adv-x="1296" d="M84 20v1428q0 20 20 20h738q74 0 136 -24.5t108.5 -70.5t73 -111.5t26.5 -147.5q0 -111 -18.5 -175.5t-42 -98t-42 -45t-18.5 -17.5q0 -10 31.5 -43t70.5 -76q14 -18 25.5 -42.5t20 -50t11.5 -51.5t3 -44q0 -98 -18.5 -184t-64.5 -149.5t-122 -100.5t-193 -37h-725 q-20 0 -20 20zM381 287q0 -20 20 -21h433q35 0 57 18.5t36.5 46t19.5 58.5t5 53q0 47 -11 79t-28.5 50.5t-39 25.5t-39.5 7h-433q-20 0 -20 -20v-297zM381 901q0 -20 20 -20h355q82 0 116.5 35.5t34.5 130.5q0 88 -45 121.5t-106 33.5h-355q-20 0 -20 -20v-281z" />
<glyph unicode="C" horiz-adv-x="1161" d="M72 438q0 -55 10 -93t20 -60q39 -90 100.5 -154.5t139.5 -93.5q35 -14 82 -25.5t108 -11.5h525q20 0 20 20v226q0 20 -20 20h-531q-72 6 -111.5 48t-45.5 114v518q0 106 38.5 173t118.5 83h531q20 0 20 21v225q0 20 -20 20h-543q-100 0 -188 -41t-152 -114 q-23 -27 -44 -58.5t-34 -76.5q-24 -75 -24 -159v-7v-574z" />
<glyph unicode="D" horiz-adv-x="1325" d="M84 20q0 -20 20 -20h701q117 0 201 42t139 109.5t80.5 150.5t25.5 163v491q0 94 -25.5 186.5t-80.5 164t-140 116.5t-202 45h-699q-20 0 -20 -20v-1428zM381 287v895q0 20 20 20h351q37 0 72.5 -17.5t64.5 -45t47 -63.5t18 -72v-545q0 -35 -16 -69t-43 -61.5t-60.5 -45 t-66.5 -17.5h-367q-20 0 -20 21z" />
<glyph unicode="E" horiz-adv-x="1181" d="M82 215q0 -39 17.5 -77t46 -68.5t65.5 -50t74 -19.5h792q20 0 21 20v226q0 20 -21 20h-678q-20 0 -20 21v297q0 20 20 20h629q20 0 21 21v235q0 20 -21 21h-629q-20 0 -20 20v279q0 23 20 22h678q20 0 21 21v225q0 20 -27 20h-694q-143 0 -219 -87t-76 -226v-940z" />
<glyph unicode="F" horiz-adv-x="1134" d="M82 20q0 -20 20 -20h256q20 0 21 20v562q0 23 20 22h629q20 0 21 21v225q0 20 -21 20h-629q-20 0 -20 23v194q0 55 21.5 85t76.5 30h619q20 0 20 21v225q0 20 -20 20h-717q-63 0 -117.5 -17t-94.5 -51t-62.5 -85t-22.5 -121v-1174z" />
<glyph unicode="G" horiz-adv-x="1331" d="M74 471q0 -78 26.5 -161t78.5 -151.5t128 -113.5t174 -45h357q121 0 201.5 45t130 107.5t71 131t21.5 115.5v461q0 20 -21 21h-637q-20 0 -20 -21v-225q0 -20 20 -21h334q20 0 20 -20v-191q0 -18 -9 -41.5t-28.5 -44t-49 -35t-68.5 -14.5h-250q-80 0 -131 70t-51 182v535 q0 18 15 43.5t36.5 49t46.5 39t43 15.5h627q20 0 20 21v225q0 20 -20 20h-267h-423q-78 0 -145.5 -38.5t-119 -100t-81 -135.5t-29.5 -141v-582z" />
<glyph unicode="H" horiz-adv-x="1290" d="M84 20q0 -20 20 -20h256q20 0 21 20v564q0 20 20 20h486q20 0 20 -20v-564q0 -20 21 -20h256q20 0 20 20v1428q0 20 -20 20h-256q-20 0 -21 -20v-557q0 -20 -20 -21h-486q-20 0 -20 21v557q0 20 -21 20h-256q-20 0 -20 -20v-1428z" />
<glyph unicode="I" horiz-adv-x="468" d="M84 20q0 -20 20 -20h256q20 0 21 20v1428q0 20 -21 20h-256q-20 0 -20 -20v-1428z" />
<glyph unicode="J" horiz-adv-x="960" d="M16 20q0 -20 21 -20h280q287 0 426.5 110.5t139.5 352.5v985q0 20 -21 20h-256q-20 0 -20 -20v-1026q0 -23 -14.5 -49.5t-36 -50t-47 -40t-50.5 -16.5h-401q-20 0 -21 -20v-226z" />
<glyph unicode="K" horiz-adv-x="1196" d="M84 20q0 -20 20 -20h256q20 0 21 20v1428q0 20 -21 20h-256q-20 0 -20 -20v-1428zM399 743q0 -47 62 -153l321 -574q2 -4 6.5 -10t12.5 -6h311q6 0 10 6q1 2 1 5q0 6 -5 16l-397 680q-4 6 -11.5 20t-7.5 21q0 4 9.5 20t13.5 20l381 654q8 14 4 20t-10 6h-312q-8 0 -12 -6 t-6 -10l-309 -559q-20 -39 -32.5 -63.5t-19 -42t-8.5 -26.5t-2 -18z" />
<glyph unicode="L" horiz-adv-x="1048" d="M82 358q0 -172 71.5 -257t241.5 -99q10 -2 25 -2h31h563q20 0 20 20v226q0 20 -20 20h-555q-80 0 -80 68v1114q0 20 -21 20h-256q-20 0 -20 -20v-1090z" />
<glyph unicode="M" horiz-adv-x="1703" d="M84 20q0 -20 20 -20h256q20 0 21 20v1135q0 14 8 14h10q8 -2 13.5 -21.5t7.5 -23.5l205 -974q6 -25 18 -51.5t37 -48t62.5 -36t97.5 -14.5q66 0 108.5 15.5t68 40t40 55t20.5 63.5q49 225 79 369.5t50.5 237.5t31.5 149.5t24 107.5q2 8 5 24.5l6 33t6 31t5 18.5q4 8 9 15 t16 7q10 0 12 -13t2 -17v-1117q0 -20 20 -20h256q20 0 21 20v1221q0 125 -82 176t-211 51q-90 0 -147.5 -10t-93 -45t-57 -105.5t-40.5 -189.5l-106 -692q0 -4 -4.5 -21.5t-8.5 -36t-10 -32.5t-10 -14t-9 14t-10.5 32.5t-8.5 37t-5 26.5l-110 678q-20 123 -41 194.5 t-57 107.5t-91 46t-143 10q-55 0 -107.5 -11t-93.5 -37.5t-65.5 -71.5t-24.5 -113v-1215z" />
<glyph unicode="N" horiz-adv-x="1341" d="M82 20q0 -20 20 -20h256q20 0 21 20v1149q0 18 14 19q12 0 19 -19l276 -1017q8 -29 26.5 -55.5t43 -48t52.5 -35t52 -13.5h189q43 0 80.5 21.5t65.5 56.5t44 76t16 82v1212q0 20 -20 20h-256q-20 0 -20 -20v-1145q0 -20 -15 -20q-14 0 -20 20l-275 1012 q-20 72 -78.5 112.5t-187.5 40.5q-88 0 -146.5 -17t-93 -53t-49 -93.5t-14.5 -137.5v-1147z" />
<glyph unicode="O" horiz-adv-x="1449" d="M74 723q0 -121 2 -209t12 -143q16 -80 34.5 -143.5t49.5 -104.5q41 -53 102.5 -93t131.5 -57q49 -10 128.5 -12t190.5 -2t190.5 2t128.5 12q70 16 131.5 56.5t102.5 93.5q31 41 49.5 104.5t34.5 143.5q10 55 12 143t2 209v12q0 121 -2 209t-12 143q-16 80 -34.5 143.5 t-49.5 104.5q-41 53 -102.5 93t-131.5 57q-49 10 -128.5 12t-190.5 2t-190.5 -2t-128.5 -12q-70 -16 -131.5 -56t-102.5 -94q-31 -41 -49.5 -104.5t-34.5 -143.5q-10 -55 -12 -143t-2 -209v-12zM371 494v471q0 109 30.5 163t104.5 72q41 10 98.5 13.5t120.5 3.5t120.5 -3.5 t98.5 -13.5q74 -18 104.5 -72.5t30.5 -162.5v-471q0 -109 -30.5 -163.5t-104.5 -72.5q-41 -10 -98.5 -13t-120.5 -3t-120.5 3t-98.5 13q-74 18 -104.5 72.5t-30.5 163.5z" />
<glyph unicode="P" horiz-adv-x="1200" d="M84 20q0 -20 20 -20h256q20 0 21 20v469q0 20 20 21h357q115 0 194.5 34t128.5 97.5t72 151.5t23 196q0 104 -23 192.5t-72 152t-129 99t-194 35.5h-654q-20 0 -20 -20v-23v-1405zM381 797v385q0 20 20 20h392q37 0 58 -25.5t31.5 -60.5t13.5 -70.5t3 -56.5q0 -20 -3 -56 t-13.5 -71t-32 -60.5t-57.5 -25.5h-392q-20 0 -20 21z" />
<glyph unicode="Q" horiz-adv-x="1556" d="M72 735q0 -147 2 -224t6 -116q10 -82 36.5 -142t67.5 -101q172 -180 531 -181h24t25 2q2 -2 8 -2h705q20 0 20 21v231q0 21 -20 21h-164q27 66 35 143q4 35 6 124t2 224q0 121 -2 209t-13 143q-16 80 -34.5 143.5t-49.5 104.5q-41 53 -102 93t-131 57q-49 10 -118.5 12 t-180.5 2q-104 0 -182 -6t-119 -16q-76 -20 -137.5 -54t-104.5 -90q-35 -45 -57.5 -111.5t-38.5 -140.5q-6 -25 -8 -52.5t-4 -65t-2 -93.5v-135zM371 500v469q0 104 41 158.5t112 72.5q25 6 83.5 11.5t117.5 5.5q63 0 110.5 -3.5t88.5 -13.5q74 -18 104.5 -72.5t30.5 -162.5 v-465q0 -115 -37 -172.5t-125 -73.5q-43 -4 -78 -7t-94 -3q-23 0 -50.5 1t-53 2t-48 2t-30.5 3q-78 12 -125 74.5t-47 173.5z" />
<glyph unicode="R" horiz-adv-x="1302" d="M84 20q0 -20 20 -20h256q20 0 21 20v502q0 20 20 21h250q88 -12 117 -127l127 -359q4 -14 18.5 -35.5t26.5 -21.5h283q12 0 12 10q0 4 -11.5 17.5t-15.5 29.5l-112 346q-16 49 -36 95.5t-67 107.5q-2 4 -2 8q0 6 3 10.5t5 6.5q53 29 84 62.5t60 74.5q43 82 43 262v47 q-6 195 -99 291q-53 55 -108 77.5t-113 22.5h-762q-20 0 -20 -20v-1428zM381 848v334q0 20 20 20h402q45 -6 78 -74q10 -20 13 -43.5t3 -52.5q0 -57 -15.5 -104t-43.5 -72q-35 -29 -64 -29h-371q-23 0 -22 21z" />
<glyph unicode="S" horiz-adv-x="1247" d="M72 1034q0 -47 7 -95t22.5 -94t39 -86t58.5 -69q59 -47 131.5 -63.5t136.5 -16.5h231q51 0 89 -9t59 -32q25 -29 29 -64.5t4 -68.5q0 -23 -2.5 -43t-12.5 -43q-10 -25 -32.5 -54.5t-53.5 -29.5h-659q-20 0 -21 -20v-226q0 -20 21 -20h745q45 0 95.5 27.5t84.5 56.5 q115 100 132 287q4 16 4 35v43q0 47 -6.5 98t-21.5 98t-38.5 88t-58.5 70q-59 49 -129 66.5t-133 17.5h-230q-47 0 -87 4t-62 27q-25 27 -29 61.5t-4 67.5q0 20 2 40.5t12 40.5q10 23 34 48.5t52 25.5h592q20 0 21 21v225q0 20 -21 20h-678q-49 0 -100 -26.5t-86 -55.5 q-119 -98 -133 -276q-4 -18 -4 -37v-39z" />
<glyph unicode="T" horiz-adv-x="1124" d="M39 1223q0 -20 20 -21h334q20 0 21 -20v-1162q0 -20 20 -20h256q20 0 21 20v1162q0 20 20 20h334q20 0 20 21v225q0 20 -20 20h-1006q-20 0 -20 -20v-225z" />
<glyph unicode="U" horiz-adv-x="1269" d="M80 395q0 -57 15.5 -107t41.5 -95q27 -41 66 -80q31 -31 73 -58q41 -27 99.5 -41t126.5 -14h239q53 0 98.5 9t82.5 22q37 14 77.5 35.5t71.5 52.5q29 31 52.5 66.5t35.5 68.5q14 35 22.5 91t8.5 130v973q0 20 -21 20h-256q-20 0 -20 -20v-997q0 -27 -11.5 -59t-31 -59.5 t-48 -47t-63.5 -19.5h-215q-37 0 -64.5 19.5t-46 47t-27.5 59.5t-9 57v999q0 20 -21 20h-256q-20 0 -20 -20v-1053z" />
<glyph unicode="V" d="M43 1456l412 -1335q25 -80 91 -100.5t183 -20.5q113 0 178.5 20.5t89.5 100.5l416 1335q0 12 -16 12h-267q-20 0 -26 -20l-352 -1145q-12 -37 -23 -37q-10 0 -14 7.5t-10 29.5l-353 1147q-6 18 -26 18h-269q-14 0 -14 -12z" />
<glyph unicode="W" horiz-adv-x="1796" d="M66 1446l184 -1286q12 -88 108 -137q80 -20 164 -21q84 0 164 21q78 12 102 112l111 907q6 -4 32.5 -236.5t76.5 -684.5q35 -74 114 -105q82 -18 164 -18q45 0 87 5t85 17q76 37 88 119l183 1313q-2 16 -21 16h-248q-30 0 -30 -18l-117 -1026q-14 -121 -27 -121 q-12 0 -24 103l-121 933q-6 37 -66 91q-43 29 -98 38h-100q-66 0 -93 -8q-94 -31 -135 -108l-100 -965q-12 -92 -21 -92q-10 0 -26 113l-137 1042q0 18 -19 18h-266q-14 -6 -14 -22z" />
<glyph unicode="X" horiz-adv-x="1187" d="M72 16q0 -12 9 -14t23 -2h228q10 0 19 2t20 18l211 404q2 4 5 11t7 7t7 -7t5 -11l211 -404q10 -16 19.5 -18t19.5 -2h227q14 0 23.5 2t9.5 14q0 4 -8 21l-342 668q-4 6 -9 16t-5 14t5 13.5t9 15.5l342 668q8 16 8 20q0 12 -9 14t-24 2h-227q-10 0 -19.5 -2t-19.5 -18 l-211 -404q-2 -4 -5 -11t-7 -7t-7 7t-5 11l-211 404q-10 16 -19.5 18t-19.5 2h-228q-14 0 -23 -2t-9 -14q0 -4 8 -20l342 -668q4 -6 9 -15.5t5 -13.5t-5 -14t-9 -16l-342 -668q-8 -16 -8 -21z" />
<glyph unicode="Y" horiz-adv-x="1374" d="M41 1438l393 -848q23 -39 54.5 -57.5t52.5 -24.5v-457q0 -51 30 -51h248q29 0 29 51v457q23 6 49.5 24.5t54.5 57.5l381 850q2 6 2 11q0 4 -1 8q-3 9 -17 9h-277q-23 0 -34 -28l-281 -627q-8 -10 -13 -15t-20 -5q-23 0 -33 20l-290 631q-10 24 -33 24h-2h-283 q-17 0 -17 -11q0 -7 7 -19z" />
<glyph unicode="Z" horiz-adv-x="1243" d="M72 256q0 -111 49 -175.5t180 -80.5h842q20 0 20 20v240q0 20 -20 21h-731q-8 0 -13.5 7t-5.5 15l4 10l680 674q45 45 61.5 113.5t16.5 128.5q0 115 -64.5 177t-175.5 62h-761q-20 0 -21 -20v-240q0 -20 21 -20h647q8 0 10 -8.5t2 -12.5q0 -12 -1 -16t-11 -14l-641 -633 q-31 -31 -59.5 -84t-28.5 -164z" />
<glyph unicode="[" horiz-adv-x="536" d="M84 -201q0 -20 20 -20h326q20 0 21 20v181q0 20 -21 20h-72q-20 0 -20 20v1428q0 20 20 20h76q16 0 17 21v178q0 20 -21 21h-326q-20 0 -20 -21v-1868z" />
<glyph unicode="\" horiz-adv-x="1087" d="M10 1456q0 12 19 12h227q16 0 23.5 -6t13.5 -16l778 -1423q4 -8 4 -11q0 -12 -18 -12h-228q-16 0 -23 6t-13 17l-779 1423q-4 8 -4 10z" />
<glyph unicode="]" horiz-adv-x="536" d="M82 -20q0 20 20 20h72q21 0 21 20v1428q0 20 -21 20h-76q-16 0 -16 21v178q0 20 20 21h326q20 0 21 -21v-1868q0 -20 -21 -20h-326q-20 0 -20 20v181z" />
<glyph unicode="^" horiz-adv-x="878" d="M27 664q0 -8 8 -9h176q10 0 12 3.5t6 13.5l183 483q2 4 8 17.5t12 13.5q4 0 11.5 -13.5t9.5 -17.5l178 -483q4 -10 6 -13.5t12 -3.5h176q8 0 9 9v4l-267 712q-33 88 -135 88q-104 0 -137 -88l-268 -712v-4z" />
<glyph unicode="_" horiz-adv-x="1304" d="M84 -315h1135v-103h-1135v103z" />
<glyph unicode="`" horiz-adv-x="708" d="M45 1356q0 39 30.5 63.5t78.5 24.5q45 0 115.5 -32t145 -78t142.5 -95t109 -86q10 -10 16 -16.5t6 -10.5q0 -20 -20 -20q-6 0 -29 1t-29 1q-184 20 -295.5 46t-172 56.5t-79 67.5t-18.5 78z" />
<glyph unicode="a" horiz-adv-x="1085" d="M72 307q0 -27 8 -78t29.5 -102t60.5 -89t100 -38h715q20 0 21 20v676q0 66 -15.5 131.5t-49.5 118.5t-88 87t-132 34h-578q-20 0 -20 -20v-209q0 -20 20 -21h539q33 0 53.5 -28.5t20.5 -57.5q0 -35 -32 -60.5t-85 -25.5h-342q-61 0 -104 -35t-70 -85t-39 -109.5 t-12 -108.5zM305 328q0 29 18.5 52t47.5 23h364q20 0 21 -20v-123q0 -20 -21 -20h-352q-37 0 -57.5 26.5t-20.5 61.5z" />
<glyph unicode="b" horiz-adv-x="1142" d="M84 20q0 -20 20 -20h637q94 0 165 48t116 123t67.5 169t22.5 186q0 121 -21.5 221.5t-66.5 171t-114.5 109.5t-168.5 39h-387q-20 0 -20 20v361q0 20 -21 20h-209q-20 0 -20 -20v-1428zM334 270v527q0 20 20 20h224q63 0 115 -11t90 -43t58.5 -89.5t20.5 -147.5 q0 -84 -20.5 -137t-57 -84t-90 -43t-116.5 -12h-224q-20 0 -20 20z" />
<glyph unicode="c" horiz-adv-x="1028" d="M61 444q0 -78 33 -156.5t94.5 -143t149.5 -104.5t201 -40h385q20 0 20 20v209q0 20 -20 21h-387q-123 0 -179.5 64.5t-56.5 166.5v88q0 104 58.5 176t177.5 72h387q20 0 20 21v209q0 20 -20 20h-346q-135 0 -233.5 -31.5t-161 -90t-92.5 -141.5t-30 -188v-172z" />
<glyph unicode="d" horiz-adv-x="1142" d="M29 526q0 121 21.5 221.5t66.5 171t114.5 109.5t167.5 39h387q21 0 21 20v361q0 20 20 20h209q20 0 21 -20v-1428q0 -20 -21 -20h-637q-98 0 -167.5 50t-114.5 128t-66.5 170t-21.5 178zM279 526q0 -84 20 -137t57 -84t89.5 -43t117.5 -12h223q20 0 21 20v527 q0 20 -21 20h-223q-63 0 -115.5 -11t-90.5 -43t-58 -89.5t-20 -147.5z" />
<glyph unicode="e" horiz-adv-x="1150" d="M31 510q0 -135 29.5 -231.5t100 -159t186.5 -91t288 -28.5h346q20 0 20 20v209q0 20 -20 21h-487q-43 0 -82 11t-67 30.5t-44 45t-16 56.5q0 21 20 21h758q20 0 20 20v213q0 96 -27.5 174t-87 132.5t-151.5 84t-219 29.5q-102 0 -203.5 -25.5t-182.5 -89t-131 -171 t-50 -271.5zM285 674q0 39 30.5 70.5t76.5 53t96.5 34t91.5 12.5q129 0 200.5 -46t71.5 -124q0 -20 -21 -21h-526q-20 0 -20 21z" />
<glyph unicode="f" horiz-adv-x="768" d="M37 838v209q0 20 20 20h109q20 0 20 20v130q0 45 21.5 91t55.5 80.5t76 57t83 22.5h293q20 0 20 -20v-209q0 -20 -16 -20h-201q-10 0 -24.5 -9.5t-26.5 -22.5t-21.5 -28.5t-9.5 -28.5v-43q0 -20 21 -20h168q20 0 20 -20v-209q0 -20 -20 -21h-168q-20 0 -21 -20v-777 q0 -20 -20 -20h-209q-20 0 -21 20v777q0 20 -20 20h-109q-20 0 -20 21z" />
<glyph unicode="g" horiz-adv-x="1155" d="M63 502q0 -121 40 -214t103.5 -157.5t142.5 -97.5t159 -33h305v-51q0 -18 -1 -42t-8 -43.5t-21.5 -33.5t-41.5 -14h-553q-20 -1 -20 -21v-188q0 -20 20 -21h615q55 0 104 28t86 70t58.5 92t21.5 93v1098q0 53 -30.5 76.5t-81.5 23.5h-474q-111 0 -191.5 -37t-131.5 -97.5 t-76 -138t-25 -161.5v-131zM338 526v54q0 111 44 174t142 63h269q20 0 20 -20v-527q0 -20 -20 -20h-131q-94 0 -157 16.5t-99.5 51t-52 85.5t-15.5 123z" />
<glyph unicode="h" horiz-adv-x="1087" d="M84 20q0 -20 20 -20h209q20 0 21 20v707q0 29 18.5 47.5t46 27.5t62.5 12t69 3q102 0 173 -40t71 -130v-627q0 -20 21 -20h209q20 0 20 20v744q0 61 -28.5 116.5t-75 97.5t-106.5 65.5t-124 23.5h-356v381q0 20 -21 20h-209q-20 0 -20 -20v-1215v-4v-209z" />
<glyph unicode="i" horiz-adv-x="421" d="M84 20q0 -20 20 -20h209q20 0 21 20v1027q0 20 -21 20h-209q-20 0 -20 -20v-1027zM84 1239q0 -20 20 -20h209q20 0 21 20v209q0 20 -21 20h-209q-20 0 -20 -20v-209z" />
<glyph unicode="j" horiz-adv-x="485" d="M-4 -170v-209q0 -20 20 -20h150q96 0 136 23.5t63 49.5q66 76 65 207v1166q0 20 -20 20h-209q-21 0 -21 -20v-1117q0 -35 -16.5 -57.5t-50.5 -22.5h-97q-20 0 -20 -20zM180 1239q0 -20 21 -20h209q20 0 20 20v209q0 20 -20 20h-209q-21 0 -21 -20v-209z" />
<glyph unicode="k" horiz-adv-x="1091" d="M84 20q0 -20 20 -20h209q20 0 21 20v1428q0 20 -21 20h-209q-20 0 -20 -20v-1215v-4v-209zM375 590q0 -23 10 -46.5t25 -41.5l356 -484q14 -18 35 -18h264q10 0 10 5q0 3 -4 9l-405 551q-4 4 -9.5 12.5t-5.5 12.5t5.5 10t9.5 10l383 437q8 8 7 14t-12 6h-266 q-23 0 -35 -16l-331 -377q-16 -20 -26.5 -44t-10.5 -40z" />
<glyph unicode="l" horiz-adv-x="421" d="M84 20q0 -20 20 -20h209q20 0 21 20v209v4v1215q0 20 -21 20h-209q-20 0 -20 -20v-1215v-4v-209z" />
<glyph unicode="m" horiz-adv-x="1671" d="M84 20q0 -20 20 -20h209q20 0 21 20v758q0 25 15.5 43.5t37.5 18.5h188q47 0 87 -34t40 -75v-711q0 -20 21 -20h209q20 0 20 20v711q0 53 36 81t73 28h135q23 0 48.5 -9.5t47 -28t35.5 -44t14 -58.5v-680q0 -20 23 -20h207q20 0 20 20v707q0 57 -27.5 117.5t-77.5 110 t-120 81t-154 31.5h-145q-12 0 -54 -3t-83 -26q-23 -10 -38 -24.5t-25.5 -26.5t-17.5 -19t-11 -7t-17.5 13t-23.5 23q-20 20 -65.5 45t-98.5 25h-424q-45 0 -85 -36t-40 -87v-924z" />
<glyph unicode="n" horiz-adv-x="1126" d="M84 82q0 -33 13.5 -57.5t41.5 -24.5h137q57 0 58 66v722q0 18 19.5 35t41.5 17h199q43 0 80 -7.5t64.5 -26t43 -51t15.5 -83.5v-652q0 -20 20 -20h207q23 0 23 20v695q0 68 -27 131t-75 112.5t-111.5 79t-137.5 29.5h-463q-66 0 -107.5 -42t-41.5 -93v-850z" />
<glyph unicode="o" horiz-adv-x="1169" d="M59 385q0 -72 14.5 -140.5t51.5 -122.5t98.5 -88t155.5 -34h364q94 0 162 18.5t112 65.5t65.5 127t21.5 203v346q0 74 -27.5 130t-71.5 96t-100.5 60.5t-111.5 20.5h-414q-66 0 -124 -22.5t-101 -64.5t-69 -101.5t-26 -133.5v-360zM305 385v328q0 29 14.5 49t36 32.5 t48 17.5t53.5 5h223q31 0 61.5 -6t55 -19.5t40 -33t15.5 -43.5v-178v-164q0 -53 -54.5 -88t-127.5 -35h-189q-27 0 -57.5 5t-57 20.5t-44 42t-17.5 67.5z" />
<glyph unicode="p" horiz-adv-x="1058" d="M84 -365q0 -20 20 -20h209q20 0 21 20v345q0 20 20 20h215q102 0 187.5 33t146 100.5t94 172t33.5 249.5q0 98 -20.5 190.5t-68.5 164t-129 114.5t-202 43h-506q-20 0 -20 -20v-1412zM334 270v527q0 20 20 20h271q31 0 60.5 -19.5t53 -48t39 -65.5t15.5 -70v-157 q0 -35 -15.5 -72t-39 -66.5t-53.5 -49t-60 -19.5h-271q-20 0 -20 20z" />
<glyph unicode="q" horiz-adv-x="1060" d="M29 555q0 98 20.5 190.5t68.5 164t129 114.5t202 43h505q20 0 21 -20v-1412q0 -20 -21 -20h-209q-20 0 -20 20v345q0 20 -20 20h-216q-102 0 -187 33t-145.5 100.5t-94 172t-33.5 249.5zM266 457q0 -35 15.5 -72t39 -66.5t53 -49t60.5 -19.5h271q20 0 20 20v527 q0 20 -20 20h-271q-31 0 -60.5 -19.5t-53 -48t-39 -65.5t-15.5 -70v-157z" />
<glyph unicode="r" horiz-adv-x="673" d="M78 20q0 -20 20 -20h230q20 0 20 20v707q0 12 6 27.5t17.5 29t26 23.5t32.5 10h197q20 0 20 21v209q0 20 -20 20h-279q-55 0 -104 -21.5t-86 -58.5t-58.5 -86t-21.5 -102v-779z" />
<glyph unicode="s" horiz-adv-x="1064" d="M76 20q0 -20 20 -20h670q70 0 114 35t68.5 83t33.5 98t9 81q0 106 -17.5 177t-53 112t-93 58.5t-137.5 17.5h-299q-31 0 -46 26.5t-15 52.5q0 29 14 52.5t47 23.5h537q20 0 20 21v209q0 20 -20 20h-443q-104 0 -179 -12.5t-123 -47t-71.5 -98t-23.5 -166.5 q0 -70 14.5 -128t45 -100t82 -65.5t124.5 -23.5h322q41 0 54 -26.5t13 -53.5q0 -14 -2 -31.5t-11 -32t-25.5 -23.5t-45.5 -9h-563q-20 -1 -20 -21v-209z" />
<glyph unicode="t" horiz-adv-x="694" d="M33 838q0 -20 20 -21h109q20 0 20 -20v-639q0 -63 51.5 -110.5t128.5 -47.5h259q20 0 20 20v209q0 18 -16 21h-172q-20 0 -21 20v527q0 20 21 20h168q20 0 20 21v209q0 20 -20 20h-168q-20 0 -21 20v256q0 20 -20 21h-209q-20 0 -21 -21v-256q0 -20 -20 -20h-109 q-20 0 -20 -20v-209z" />
<glyph unicode="u" horiz-adv-x="1064" d="M80 240q0 -66 40 -113t103.5 -78t144.5 -45t164 -14q82 0 163 14t145.5 45t104.5 78t40 113v807q0 20 -20 20h-209q-21 0 -21 -20v-719q0 -18 -17.5 -35t-46 -29t-64.5 -18t-75 -6t-75.5 6t-64 18t-45 28.5t-17.5 35.5v719q0 20 -21 20h-209q-20 0 -20 -20v-807z" />
<glyph unicode="v" horiz-adv-x="1148" d="M37 1055l354 -953q43 -116 178 -116h2q139 0 183 116l356 953v6q0 10 -10 10h-236q-12 0 -16 -4t-8 -16l-242 -650q-2 -4 -10 -22.5t-17 -18.5q-8 0 -16 18.5t-10 22.5l-238 650q-4 12 -8 16t-16 4h-236q-10 0 -10 -10v-6z" />
<glyph unicode="w" horiz-adv-x="1583" d="M68 1049l125 -871q8 -55 21 -93t37.5 -61.5t63.5 -33.5t101 -10h57q35 0 74 6t72.5 24.5t58 54t31.5 97.5l55 590q2 10 11 13t16 3q6 0 15 -3t11 -13l55 -590q6 -61 31 -97t58.5 -54.5t72.5 -24.5t74 -6h57q61 0 100.5 10t64 33.5t37.5 61.5t22 93l124 875q0 14 -24 14 h-203q-14 0 -18 -6t-6 -17l-97 -696q-2 -12 -11 -19t-17 -7t-17.5 7t-11.5 19l-51 563q-6 57 -26.5 91t-52.5 51.5t-74 21.5t-87 4h-53q-47 0 -88 -4t-73 -21.5t-52.5 -51t-26.5 -91.5l-51 -563q-2 -12 -11 -19t-18 -7q-8 0 -17 7t-11 19l-97 696q-2 10 -6 16.5t-18 6.5 h-203q-25 0 -24 -18z" />
<glyph unicode="x" horiz-adv-x="1132" d="M68 4q0 -4 8 -4h262q18 0 24.5 4t10.5 12l159 248q6 8 14.5 17.5t18.5 9.5t17.5 -9.5t13.5 -17.5l162 -248q4 -8 10 -12t23 -4h266q6 0 6 4q0 2 -4 10l-314 488q-18 29 -18 45q0 14 6 24.5t15 22.5l288 455q6 8 6 14q0 4 -12 4h-278q-27 0 -37 -18l-115 -193 q-4 -8 -13 -17.5t-22 -9.5q-12 0 -21 9.5t-14 17.5l-116 193q-10 18 -35 18h-281q-12 0 -12 -2q0 -8 6 -16l291 -455q8 -10 13 -21.5t5 -25.5q0 -23 -16 -45l-313 -488q-4 -8 -4 -10z" />
<glyph unicode="y" horiz-adv-x="1165" d="M-4 1053q0 -6 2 -9l332 -976q10 -31 29.5 -44.5t38 -17.5t32.5 -4t14 -4v-2l-143 -379v-6q0 -8 10 -8h244q27 0 33 16l547 1425q2 4 2 9q0 14 -21 14h-246q-18 0 -22 -12l-260 -686q-2 -6 -7.5 -19.5t-11.5 -27t-14 -23.5t-16 -10t-16.5 11t-15.5 24.5t-11 27t-7 19.5 l-217 682q-6 14 -24 14h-238q-14 0 -14 -14z" />
<glyph unicode="z" horiz-adv-x="1083" d="M76 172q0 39 17.5 73t47.5 64l473 471q8 8 9 19q0 18 -35 18h-467q-20 0 -21 21v209q0 20 21 20h672q121 0 166 -46t45 -140q0 -43 -12.5 -74t-35.5 -53l-460 -461q-14 -14 -15 -27q0 -16 23 -16h471q20 0 20 -21v-209q0 -20 -20 -20h-670q-129 0 -179 46t-50 126z" />
<glyph unicode="{" horiz-adv-x="540" d="M106 735q0 10 18.5 23.5t57.5 38.5q14 8 26.5 31.5t22 50t14.5 53t5 43.5q0 8 -4 24q-94 295 -94 392q0 117 72.5 183t209.5 105h4q12 0 13 -20v-123q0 -25 -23 -35q-72 -31 -72 -119q0 -47 47 -182q47 -131 48 -176q0 -156 -109 -246q-16 -14 -37.5 -23.5t-48.5 -19.5 q55 -18 86 -45q109 -86 109 -246q0 -45 -48 -174q-47 -135 -47 -184q0 -86 72 -119q23 -8 23 -33v-124q0 -20 -13 -21h-4q-137 39 -209.5 106.5t-72.5 184.5q0 98 94 389q2 8 3 13t1 12q0 16 -7 38.5t-16.5 46t-21.5 42t-21 28.5q-41 41 -59.5 58.5t-18.5 27.5z" />
<glyph unicode="|" horiz-adv-x="479" d="M84 20q0 -20 20 -20h267q20 0 20 20v1428q0 20 -20 20h-267q-20 0 -20 -20v-1428z" />
<glyph unicode="}" horiz-adv-x="540" d="M106 -66v-124q0 -20 13 -21h4q137 39 210 106.5t73 184.5q0 98 -95 389q-2 8 -3 13t-1 12q0 16 7.5 38.5t16.5 46t20 42t22 28.5q41 41 59.5 58.5t18.5 27.5t-18.5 23.5t-57.5 38.5q-14 8 -26.5 31.5t-22 50t-14.5 53t-5 43.5q0 8 4 24q94 295 95 392q0 117 -73 183 t-210 105h-4q-12 0 -13 -20v-123q0 -25 23 -35q72 -31 72 -119q0 -47 -47 -182q-47 -131 -48 -176q0 -156 109 -246q16 -14 37.5 -23.5t48.5 -19.5q-55 -18 -86 -45q-109 -86 -109 -246q0 -45 48 -174q47 -135 47 -184q0 -86 -72 -119q-23 -8 -23 -33z" />
<glyph unicode="~" horiz-adv-x="1054" d="M66 588q92 172 249 172q49 0 109 -19q43 -12 115 -47q45 -23 82 -37q86 -37 120 -36q63 0 119 67q14 18 58 78l71 -178q-57 -82 -100 -117q-68 -55 -150 -55q-90 0 -202 65q-127 72 -232 72q-100 0 -166 -145z" />
<glyph unicode="&#xa1;" horiz-adv-x="468" d="M84 20q0 -20 20 -20h256q21 0 21 20v1029q0 20 -21 20h-256q-20 0 -20 -20v-1029zM84 1241q0 -20 20 -20h256q20 0 21 20v207q0 20 -21 20h-256q-20 0 -20 -20v-207z" />
<glyph unicode="&#xa2;" horiz-adv-x="976" d="M41 444q0 -76 31.5 -154.5t91 -142t145.5 -104.5t195 -43v-125h151v125h248q20 0 21 20v209q0 20 -21 21h-248v567h248q20 0 21 21v209q0 20 -21 20h-248v154h-151v-156q-244 -12 -353.5 -132t-109.5 -317v-172zM281 481v88q0 100 55 172t168 76v-567q-117 4 -170 67.5 t-53 163.5z" />
<glyph unicode="&#xa3;" horiz-adv-x="1298" d="M57 20q0 -20 21 -20h856q68 0 126 31.5t101 80t66.5 105.5t23.5 111v41q0 20 -20 20h-199q-20 0 -20 -20q-2 -96 -103 -107q-6 -2 -24 -2h-406q-18 0 -18 10q0 6 8 15q35 41 52.5 86t27.5 92q4 23 5 49.5t3 46.5q0 20 21 21h313q20 0 20 20v197q0 20 -20 20h-334 q-20 0 -20 21v288q0 53 33.5 83t91.5 30h57q41 0 65.5 -27.5t24.5 -76.5v-48q0 -20 20 -20h181q20 0 20 20v87q0 74 -23.5 129t-62.5 92t-87 55t-99 18h-174q-156 0 -223.5 -80.5t-67.5 -242.5v-307q0 -20 -21 -21h-192q-20 0 -21 -20v-197q0 -20 21 -20h190q20 0 21 -21 v-31q0 -47 -14.5 -95t-41 -87t-65.5 -62.5t-86 -23.5q-27 0 -27 -27v-213z" />
<glyph unicode="&#xa4;" horiz-adv-x="1320" d="M72 299l202 205q-68 121 -67 250q0 123 65 233l-200 209l135 139l207 -207q113 70 248 70q84 0 130 -12t113 -58l205 207l139 -139l-205 -205q43 -70 55.5 -115t12.5 -126q0 -82 -12.5 -127t-55.5 -119l205 -205l-139 -139l-207 202q-109 -66 -235 -65q-127 0 -254 65 l-207 -202zM444 745q0 -98 60.5 -166.5t157.5 -68.5q94 0 153 71t59 167q0 100 -56 166.5t-154 66.5q-106 0 -163 -65.5t-57 -170.5z" />
<glyph unicode="&#xa5;" horiz-adv-x="1392" d="M45 1456q0 -6 6 -18l268 -580h-133q-20 0 -20 -20v-197q0 -20 20 -20h244l14 -31q23 -39 54.5 -57.5t52.5 -24.5v-43h-365q-20 0 -20 -21v-196q0 -20 20 -21h365v-176q0 -51 31 -51h247q29 0 29 51v176h346q20 0 21 21v196q0 20 -21 21h-346v43q23 6 49.5 24.5t55.5 57.5 l12 31h229q20 0 21 20v197q0 20 -21 20h-123l262 582q2 4 3 10q0 18 -19 18h-276q-23 0 -35 -28l-260 -582h-107l-270 586q-10 25 -35 24h-283q-16 0 -16 -12z" />
<glyph unicode="&#xa6;" horiz-adv-x="479" d="M84 20q0 -20 20 -20h267q20 0 20 20v568q0 20 -20 20h-267q-20 0 -20 -20v-568zM84 881q0 -20 20 -21h267q20 0 20 21v567q0 20 -20 20h-267q-20 0 -20 -20v-567z" />
<glyph unicode="&#xa7;" horiz-adv-x="1058" d="M55 612q0 82 42 145.5t124 116.5q16 10 2 25q-90 90 -90 221q0 166 117 271q106 98 276 98q178 0 287 -92t109 -267q0 -18 -21 -18h-209q-18 0 -18 18q0 70 -40 105t-112 35q-53 0 -94 -29q-47 -35 -47 -84q0 -72 74 -110l315 -166q119 -61 172 -129q64 -78 64 -203 q0 -55 -41 -131q-25 -45 -55.5 -79t-73.5 -56q-6 -4 -8.5 -10.5t3.5 -10.5q59 -45 84 -110.5t25 -139.5q0 -176 -121 -280.5t-299 -104.5q-225 0 -334 152q-35 49 -55 100t-20 105q0 23 20 22h217q20 0 21 -16q0 -74 49 -111t121 -37q63 0 102 41t39 105q0 78 -113 135 l-301 162q-115 61 -160 129q-51 76 -51 198zM285 666q0 -80 88 -129l291 -160q20 -14 30 0q29 31 49.5 58.5t20.5 66.5q0 70 -113 131l-266 139q-23 12 -37 2q-27 -16 -45 -47t-18 -61z" />
<glyph unicode="&#xa8;" horiz-adv-x="862" d="M84 1192q0 -20 20 -21h256q20 0 21 21v256q0 20 -21 20h-256q-20 0 -20 -20v-256zM479 1192q0 -20 21 -21h256q20 0 20 21v256q0 20 -20 20h-256q-20 0 -21 -20v-256z" />
<glyph unicode="&#xa9;" horiz-adv-x="1470" d="M76 424v623q0 209 117.5 315t326.5 106h535q104 0 169.5 -26.5t102.5 -79.5t50.5 -132t13.5 -183v-611q0 -102 -13.5 -179t-50.5 -130t-102.5 -80t-169.5 -27h-535q-98 0 -180 26t-140.5 76t-91 126t-32.5 176zM223 412q0 -53 21.5 -98.5t57.5 -77t85 -50t105 -18.5h485 q117 0 190.5 63.5t73.5 180.5v667q0 119 -70.5 181.5t-193.5 62.5h-485q-61 0 -110.5 -19.5t-85.5 -53t-54.5 -80t-18.5 -101.5v-657zM371 549q0 -35 8 -59.5t12 -38.5q23 -59 64 -99.5t90 -60.5q23 -8 52.5 -15.5t70.5 -7.5h370q14 0 15 13v145q0 14 -15 14h-374 q-47 4 -73 31t-30 74v332q0 143 103 165h374q14 0 15 15v145q0 12 -15 12h-381q-66 0 -123 -25.5t-98 -74.5q-14 -18 -27.5 -37.5t-21.5 -48.5q-16 -55 -16 -106v-373z" />
<glyph unicode="&#xaa;" horiz-adv-x="829" d="M76 965q0 88 47 151.5t131 63.5h303v37q0 29 -17.5 55t-39 34.5t-56.5 8.5h-325v153h327q160 0 224 -65q70 -78 69 -238v-405h-473q-84 0 -137 59.5t-53 145.5zM80 553v149h674l-2 -149h-672zM260 973q0 -68 72 -68h225v139h-221q-76 0 -76 -71z" />
<glyph unicode="&#xab;" horiz-adv-x="827" d="M45 465v227q0 12 4 19.5t14 15.5l304 260q4 4 10 4q10 0 10 -12v-203q0 -12 -4 -19t-10 -14l-168 -145q-8 -6 -14.5 -12t-6.5 -11q0 -4 6.5 -10t14.5 -12l166 -147q16 -12 16 -37v-203q0 -10 -8 -10q-6 0 -12 6l-301 258q-10 10 -15.5 19.5t-5.5 25.5zM401 465v227 q0 12 4.5 19.5t14.5 15.5l303 260q4 4 10 4q10 0 10 -12v-203q0 -12 -4 -19t-10 -14l-168 -145q-8 -6 -14 -12t-6 -11q0 -4 6 -10t14 -12l166 -147q16 -12 16 -37v-203q0 -10 -8 -10q-6 0 -12 6l-301 258q-10 10 -15.5 19.5t-5.5 25.5z" />
<glyph unicode="&#xac;" horiz-adv-x="1157" d="M12 664q0 -20 21 -21h780q20 0 21 -20v-375q0 -20 20 -21h197q20 0 20 21v612q0 20 -20 21h-1018q-20 0 -21 -21v-196z" />
<glyph unicode="&#xad;" horiz-adv-x="1228" d="M84 434q0 -20 20 -20h1018q20 0 21 20v197q0 20 -21 20h-1018q-20 0 -20 -20v-197z" />
<glyph unicode="&#xae;" horiz-adv-x="1665" d="M78 416v631q0 209 117.5 315t326.5 106h619q211 0 328.5 -106.5t117.5 -314.5v-619q0 -205 -117.5 -316.5t-328.5 -111.5h-619q-98 0 -179 27.5t-140.5 81t-92 130t-32.5 177.5zM276 434q0 -129 59.5 -181t184.5 -52h627q125 0 182 55t57 178v606q0 129 -55 179.5 t-184 50.5h-627q-129 0 -186.5 -50.5t-57.5 -179.5v-606zM498 276q0 -12 12 -12h164q12 0 12 12v328q0 14 14 14h158q57 -8 76 -81l80 -236q4 -10 12 -23.5t16 -13.5h181q8 0 8 6q0 4 -7 12.5t-10 18.5l-71 227q-10 33 -23.5 61.5t-42.5 67.5q-2 2 -2 7q0 4 6 10 q33 18 53.5 39.5t36.5 48.5q29 53 29 166v30q0 63 -17.5 109.5t-45.5 75.5q-35 35 -70 50t-72 15h-485q-12 0 -12 -14v-918zM686 813v211q0 14 14 14h254q31 -6 52 -47q6 -12 8 -28.5t2 -32.5q0 -37 -10.5 -66.5t-28.5 -46.5q-23 -18 -39 -18h-238q-14 0 -14 14z" />
<glyph unicode="&#xaf;" horiz-adv-x="946" d="M84 1159v156h776v-156h-776z" />
<glyph unicode="&#xb0;" horiz-adv-x="774" d="M57 1167q0 131 90.5 229.5t221.5 98.5h14q139 0 235.5 -94.5t96.5 -233.5q0 -137 -96.5 -232t-233.5 -95q-133 0 -230.5 96t-97.5 231zM150 1167q0 -100 67.5 -169.5t167.5 -69.5t170 70.5t70 168.5q0 100 -71 170t-173 70h-12q-96 0 -157.5 -70.5t-61.5 -169.5z" />
<glyph unicode="&#xb1;" horiz-adv-x="1191" d="M45 20q0 -20 21 -20h1060q20 0 21 20v197q0 20 -21 21h-1060q-20 0 -21 -21v-197zM45 750q0 -20 21 -21h389q20 0 20 -20v-390q0 -20 21 -20h200q20 0 21 20v390q0 20 20 20h389q20 0 21 21v190q0 20 -21 21h-389q-20 0 -20 20v389q0 20 -21 21h-200q-20 0 -21 -21v-393 q0 -16 -20 -16h-389q-20 0 -21 -21v-190z" />
<glyph unicode="&#xb2;" horiz-adv-x="567" d="M41 1130q0 4 4 13l170 243q10 14 24.5 23.5t34.5 9.5h238q31 0 31 -18q0 -10 -11 -21l-260 -241q-18 -18 -47 -19h-168q-16 0 -16 10z" />
<glyph unicode="&#xb3;" horiz-adv-x="567" d="M23 1401q0 -10 10 -21l260 -241q18 -18 47 -19h168q16 0 16 10q0 4 -4 13l-170 243q-10 14 -24.5 23.5t-34.5 9.5h-238q-31 0 -30 -18z" />
<glyph unicode="&#xb4;" horiz-adv-x="708" d="M20 1126q0 -20 21 -20q6 0 28.5 1t28.5 1q184 20 296 46t172.5 56.5t79 67.5t18.5 78q0 39 -31 63.5t-78 24.5q-45 0 -115.5 -32t-145.5 -78t-143.5 -95t-107.5 -86l-16.5 -16.5t-6.5 -10.5z" />
<glyph unicode="&#xb5;" horiz-adv-x="1105" d="M80 -399q0 -20 20 -21h230q20 0 20 21v422q29 -25 74 -37.5t90 -12.5q86 0 147.5 28t114.5 120v-101q0 -20 21 -20h229q20 0 21 20v1031q0 20 -21 20h-229q-20 0 -21 -20v-615q0 -98 -63.5 -160.5t-161.5 -62.5q-92 0 -146.5 50t-54.5 151v637q0 20 -20 20h-230 q-20 0 -20 -20v-1450z" />
<glyph unicode="&#xb6;" horiz-adv-x="1265" d="M33 1100q0 195 147 291q127 78 334 77h666v-1865h-238v1687h-209v-1687h-237v1126q-205 0 -324 82q-139 94 -139 289z" />
<glyph unicode="&#xb7;" horiz-adv-x="460" d="M84 635v260h289v-260h-289z" />
<glyph unicode="&#xb8;" horiz-adv-x="604" d="M37 -408q0 6 2 11l33 67q4 10 14 11q4 0 6 -3q53 -20 92 -24t62 -4q39 0 71.5 21.5t32.5 58.5q0 74 -86 73q-16 0 -32.5 -3t-36.5 -7q-4 0 -5.5 -1t-5.5 -1q-10 0 -18 8l-23 19q-4 2 -4 12t4 16l99 142q8 12 26 12h94q8 0 9 -6q0 -2 -4 -10l-52 -70q-6 -10 -6 -14 q0 -6 10 -6q8 0 15 2q8 2 14 2h14q82 0 134 -39q59 -47 59 -123q0 -100 -90 -156q-78 -47 -182 -47q-100 0 -236 45q-10 4 -10 14z" />
<glyph unicode="&#xb9;" horiz-adv-x="421" d="M84 20q0 -20 20 -20h209q20 0 21 20v1027q0 20 -21 20h-209q-20 0 -20 -20v-1027z" />
<glyph unicode="&#xba;" horiz-adv-x="876" d="M70 1094q0 158 108 252q102 88 262 88q166 0 265 -86q100 -92 100 -256q0 -174 -97.5 -269.5t-271.5 -95.5q-367 0 -366 367zM74 539v147h719v-147h-719zM258 1085q0 -92 43 -153q51 -68 139 -68q174 1 174 228q0 84 -48 140t-132 56q-82 0 -129 -59.5t-47 -143.5z" />
<glyph unicode="&#xbb;" horiz-adv-x="911" d="M84 154v239l205 180l-205 181v239l346 -297v-245zM522 154v239l205 180l-205 181v239l342 -297v-245z" />
<glyph unicode="&#xbf;" horiz-adv-x="1114" d="M33 432q0 -78 20.5 -155.5t63.5 -139t107.5 -100.5t152.5 -39h657q20 0 21 20v226q0 20 -21 20h-592q-35 0 -57.5 16.5t-34.5 41t-17 51t-5 47.5q0 78 25.5 119t111.5 41q100 0 173 36.5t120 98t70.5 143.5t23.5 172v103q0 20 -21 20h-256q-20 0 -20 -20v-103 q0 -39 -6 -70.5t-22.5 -55t-48.5 -36t-83 -12.5q-193 0 -277.5 -114.5t-84.5 -309.5zM555 1239q0 -20 20 -20h256q20 0 21 20v207q0 20 -21 20h-256q-20 0 -20 -20v-207z" />
<glyph unicode="&#xc0;" horiz-adv-x="1411" d="M43 12q0 -12 16 -12h267q20 0 26 20l109 351q6 23 26 22h482q20 0 26 -20l109 -355q6 -18 26 -18h269q14 0 14 12l-412 1336q-25 80 -91 100t-183 20q-113 0 -178.5 -20.5t-89.5 -99.5zM395 1774q0 39 30.5 63.5t78.5 24.5q45 0 115.5 -32t145 -78t142.5 -95t109 -86 q10 -10 16 -16.5t6 -10.5q0 -20 -20 -20q-6 0 -29 1t-29 1q-184 20 -295.5 46t-172 56.5t-79 67.5t-18.5 78zM559 688q0 2 1 4t1 6l144 467q12 37 22 37t14 -7t11 -30l143 -467q0 -4 1 -6t1 -4q0 -14 -16 -14h-306q-16 0 -16 14z" />
<glyph unicode="&#xc1;" horiz-adv-x="1411" d="M43 12q0 -12 16 -12h267q20 0 26 20l109 351q6 23 26 22h482q20 0 26 -20l109 -355q6 -18 26 -18h269q14 0 14 12l-412 1336q-25 80 -91 100t-183 20q-113 0 -178.5 -20.5t-89.5 -99.5zM438 1519q0 -20 21 -20q6 0 28.5 1t28.5 1q184 20 296 46t172.5 56.5t79 67.5 t18.5 78q0 39 -31 63.5t-78 24.5q-45 0 -115.5 -32t-145.5 -78t-143.5 -95t-107.5 -86l-16.5 -16.5t-6.5 -10.5zM559 688q0 2 1 4t1 6l144 467q12 37 22 37t14 -7t11 -30l143 -467q0 -4 1 -6t1 -4q0 -14 -16 -14h-306q-16 0 -16 14z" />
<glyph unicode="&#xc2;" horiz-adv-x="1411" d="M43 12q0 -12 16 -12h267q20 0 26 20l109 351q6 23 26 22h482q20 0 26 -20l109 -355q6 -18 26 -18h269q14 0 14 12l-412 1336q-25 80 -91 100t-183 20q-113 0 -178.5 -20.5t-89.5 -99.5zM342 1510q0 6 6 12l213 258q10 10 19.5 15.5t25.5 5.5h228q12 0 19 -4.5t15 -14.5 l220 -260q4 -4 4 -10q0 -10 -13 -11h-202q-12 0 -19.5 4.5t-13.5 10.5l-105 125q-6 8 -12 14t-10 6t-10 -6t-13 -14l-102 -123q-12 -16 -37 -17h-203q-10 0 -10 9zM559 688q0 2 1 4t1 6l144 467q12 37 22 37t14 -7t11 -30l143 -467q0 -4 1 -6t1 -4q0 -14 -16 -14h-306 q-16 0 -16 14z" />
<glyph unicode="&#xc3;" horiz-adv-x="1411" d="M43 12q0 -12 16 -12h267q20 0 26 20l109 351q6 23 26 22h482q20 0 26 -20l109 -355q6 -18 26 -18h269q14 0 14 12l-412 1336q-25 80 -91 100t-183 20q-113 0 -178.5 -20.5t-89.5 -99.5zM316 1540q0 2 1 3t1 5q14 63 18 74q16 59 39 94q74 109 207 108q37 0 147 -47 q113 -47 154 -47q74 0 100 72q8 23 29 22h104q16 0 17 -12v-4q-33 -137 -89.5 -210t-154.5 -73q-82 0 -328 95q-16 4 -20 4q-29 0 -49.5 -24.5t-30.5 -57.5q-6 -20 -25 -21h-98q-23 0 -22 19zM559 688q0 2 1 4t1 6l144 467q12 37 22 37t14 -7t11 -30l143 -467q0 -4 1 -6 t1 -4q0 -14 -16 -14h-306q-16 0 -16 14z" />
<glyph unicode="&#xc4;" horiz-adv-x="1411" d="M43 12q0 -12 16 -12h267q20 0 26 20l109 351q6 23 26 22h482q20 0 26 -20l109 -355q6 -18 26 -18h269q14 0 14 12l-412 1336q-25 80 -91 100t-183 20q-113 0 -178.5 -20.5t-89.5 -99.5zM383 1559q0 -20 20 -21h256q20 0 21 21v256q0 20 -21 20h-256q-20 0 -20 -20v-256z M559 688q0 2 1 4t1 6l144 467q12 37 22 37t14 -7t11 -30l143 -467q0 -4 1 -6t1 -4q0 -14 -16 -14h-306q-16 0 -16 14zM778 1559q0 -20 21 -21h256q20 0 20 21v256q0 20 -20 20h-256q-20 0 -21 -20v-256z" />
<glyph unicode="&#xc5;" horiz-adv-x="1411" d="M43 12q0 -12 16 -12h267q20 0 26 20l109 351q6 23 26 22h482q20 0 26 -20l109 -355q6 -18 26 -18h269q14 0 14 12l-412 1336q-25 80 -91 100t-183 20q-113 0 -178.5 -20.5t-89.5 -99.5zM493 1727q0 90 72 152.5t164 62.5q94 0 165.5 -61.5t71.5 -153.5t-71.5 -152.5 t-165.5 -60.5q-92 0 -164 60.5t-72 152.5zM559 688q0 2 1 4t1 6l144 467q12 37 22 37t14 -7t11 -30l143 -467q0 -4 1 -6t1 -4q0 -14 -16 -14h-306q-16 0 -16 14zM614 1727q0 -47 34 -78t81 -31q49 0 82 31t33 78q0 45 -35 75.5t-80 30.5q-47 0 -81 -29.5t-34 -76.5z" />
<glyph unicode="&#xc6;" horiz-adv-x="2230" d="M35 10q-4 -10 14 -10h295q16 0 20.5 4t8.5 14l219 353q16 23 35 22h483q20 0 20 -20v-158q0 -41 17.5 -76t40.5 -61q29 -33 66.5 -55.5t78.5 -22.5h793q20 0 20 20v226q0 20 -20 20h-678q-20 0 -21 21v297q0 20 21 20h629q20 0 20 21v235q0 20 -20 21h-629q-20 0 -21 20 v279q0 23 21 22h678q20 0 20 21v225q0 20 -26 20h-946q-113 0 -184.5 -20.5t-121.5 -99.5l-831 -1330zM791 688q2 2 6 10l288 467q25 37 35 37q8 0 10 -8v-39v-457q-2 -4 -1 -6t-1 -4q-4 -14 -20 -14h-305q-16 0 -12 14z" />
<glyph unicode="&#xc7;" horiz-adv-x="1210" d="M72 438q0 -55 10 -93t20 -60q39 -90 100.5 -154.5t139.5 -93.5q35 -14 82 -25.5t108 -11.5h525q20 0 20 20v226q0 20 -20 20h-531q-72 6 -111.5 48t-45.5 114v518q0 106 38.5 173t118.5 83h531q20 0 20 21v225q0 20 -20 20h-543q-100 0 -188 -41t-152 -114 q-23 -27 -44 -58.5t-34 -76.5q-25 -78 -24 -166v-574zM443 -408q0 6 2 11l33 67q4 10 14 11q4 0 6 -3q53 -20 92 -24t62 -4q39 0 71.5 21.5t32.5 58.5q0 74 -86 73q-16 0 -32.5 -3t-36.5 -7q-4 0 -5.5 -1t-5.5 -1q-10 0 -18 8l-23 19q-4 2 -4 12t4 16l99 142q8 12 26 12h94 q8 0 9 -6q0 -2 -4 -10l-52 -70q-6 -10 -6 -14q0 -6 10 -6q8 0 15 2q8 2 14 2h14q82 0 134 -39q59 -47 59 -123q0 -100 -90 -156q-78 -47 -182 -47q-100 0 -236 45q-10 4 -10 14z" />
<glyph unicode="&#xc8;" horiz-adv-x="1144" d="M82 215q0 -39 17.5 -77t46 -68.5t65.5 -50t74 -19.5h792q20 0 21 20v226q0 20 -21 20h-678q-20 0 -20 21v297q0 20 20 20h629q20 0 21 21v235q0 20 -21 21h-629q-20 0 -20 20v279q0 23 20 22h678q20 0 21 21v225q0 20 -27 20h-694q-143 0 -219 -87t-76 -226v-940z M356 1768q0 39 30.5 63.5t78.5 24.5q45 0 115.5 -32t145 -78t142.5 -95t109 -86q10 -10 16 -16.5t6 -10.5q0 -20 -20 -20q-6 0 -29 1t-29 1q-184 20 -295.5 46t-172 56.5t-79 67.5t-18.5 78z" />
<glyph unicode="&#xc9;" horiz-adv-x="1144" d="M82 215q0 -39 17.5 -77t46 -68.5t65.5 -50t74 -19.5h792q20 0 21 20v226q0 20 -21 20h-678q-20 0 -20 21v297q0 20 20 20h629q20 0 21 21v235q0 20 -21 21h-629q-20 0 -20 20v279q0 23 20 22h678q20 0 21 21v225q0 20 -27 20h-694q-143 0 -219 -87t-76 -226v-940z M325 1544q0 -20 21 -20q6 0 28.5 1t28.5 1q184 20 296 46t172.5 56.5t79 67.5t18.5 78q0 39 -31 63.5t-78 24.5q-45 0 -115.5 -32t-145.5 -78t-143.5 -95t-107.5 -86l-16.5 -16.5t-6.5 -10.5z" />
<glyph unicode="&#xca;" horiz-adv-x="1144" d="M82 215q0 -39 17.5 -77t46 -68.5t65.5 -50t74 -19.5h792q20 0 21 20v226q0 20 -21 20h-678q-20 0 -20 21v297q0 20 20 20h629q20 0 21 21v235q0 20 -21 21h-629q-20 0 -20 20v279q0 23 20 22h678q20 0 21 21v225q0 20 -27 20h-694q-143 0 -219 -87t-76 -226v-940z M268 1528q0 6 6 12l213 258q10 10 19.5 15.5t25.5 5.5h228q12 0 19 -4.5t15 -14.5l220 -260q4 -4 4 -10q0 -10 -13 -11h-202q-12 0 -19.5 4.5t-13.5 10.5l-105 125q-6 8 -12 14t-10 6t-10 -6t-13 -14l-102 -123q-12 -16 -37 -17h-203q-10 0 -10 9z" />
<glyph unicode="&#xcb;" horiz-adv-x="1144" d="M82 215q0 -39 17.5 -77t46 -68.5t65.5 -50t74 -19.5h792q20 0 21 20v226q0 20 -21 20h-678q-20 0 -20 21v297q0 20 20 20h629q20 0 21 21v235q0 20 -21 21h-629q-20 0 -20 20v279q0 23 20 22h678q20 0 21 21v225q0 20 -27 20h-694q-143 0 -219 -87t-76 -226v-940z M348 1536q0 -20 20 -21h256q20 0 21 21v256q0 20 -21 20h-256q-20 0 -20 -20v-256zM743 1536q0 -20 21 -21h256q20 0 20 21v256q0 20 -20 20h-256q-20 0 -21 -20v-256z" />
<glyph unicode="&#xcc;" horiz-adv-x="501" d="M-53 1796q0 39 30.5 63.5t78.5 24.5q45 0 115.5 -32t145 -78t142.5 -95t109 -86q10 -10 16 -16.5t6 -10.5q0 -20 -20 -20q-6 0 -29 1t-29 1q-184 20 -295.5 46t-172 56.5t-79 67.5t-18.5 78zM84 20q0 -20 20 -20h256q20 0 21 20v1428q0 20 -21 20h-256q-20 0 -20 -20 v-1428z" />
<glyph unicode="&#xcd;" horiz-adv-x="501" d="M-80 1544q0 -20 21 -20q6 0 28.5 1t28.5 1q184 20 296 46t172.5 56.5t79 67.5t18.5 78q0 39 -31 63.5t-78 24.5q-45 0 -115.5 -32t-145.5 -78t-143.5 -95t-107.5 -86l-16.5 -16.5t-6.5 -10.5zM84 20q0 -20 20 -20h256q20 0 21 20v1428q0 20 -21 20h-256q-20 0 -20 -20 v-1428z" />
<glyph unicode="&#xce;" horiz-adv-x="497" d="M-117 1540q0 6 6 12l213 258q10 10 19.5 15.5t25.5 5.5h228q12 0 19 -4.5t15 -14.5l220 -260q4 -4 4 -10q0 -10 -13 -11h-202q-12 0 -19.5 4.5t-13.5 10.5l-105 125q-6 8 -12 14t-10 6t-10 -6t-13 -14l-102 -123q-12 -16 -37 -17h-203q-10 0 -10 9zM84 20q0 -20 20 -20 h256q20 0 21 20v1428q0 20 -21 20h-256q-20 0 -20 -20v-1428z" />
<glyph unicode="&#xcf;" horiz-adv-x="501" d="M-82 1546q0 -20 20 -21h256q20 0 21 21v256q0 20 -21 20h-256q-20 0 -20 -20v-256zM84 20q0 -20 20 -20h256q20 0 21 20v1428q0 20 -21 20h-256q-20 0 -20 -20v-1428zM313 1546q0 -20 21 -21h256q20 0 20 21v256q0 20 -20 20h-256q-20 0 -21 -20v-256z" />
<glyph unicode="&#xd0;" horiz-adv-x="1462" d="M33 682q0 -20 20 -20h140q20 0 20 -21v-621q0 -20 20 -20h701q117 0 201 42t139 109.5t80.5 150.5t25.5 163v491q0 94 -25.5 186.5t-80.5 164t-140 116.5t-202 45h-699q-20 0 -20 -20v-528q0 -20 -20 -21h-146q-14 -2 -14 -20v-197zM510 287v354q0 20 20 21h369 q20 0 21 20v197q0 20 -21 20h-369q-20 1 -20 21v262q0 20 20 20h351q37 0 72.5 -17.5t64.5 -45t47 -63.5t18 -72v-545q0 -35 -16 -69t-43 -61.5t-60.5 -45t-66.5 -17.5h-367q-20 0 -20 21z" />
<glyph unicode="&#xd1;" horiz-adv-x="1370" d="M82 20q0 -20 20 -20h256q20 0 21 20v1149q0 18 14 19q12 0 19 -19l276 -1017q8 -29 26.5 -55.5t43 -48t52.5 -35t52 -13.5h189q43 0 80.5 21.5t65.5 56.5t44 76t16 82v1212q0 20 -20 20h-256q-20 0 -20 -20v-1145q0 -20 -15 -20q-14 0 -20 20l-275 1012 q-20 72 -78.5 112.5t-187.5 40.5q-88 0 -146.5 -17t-93 -53t-49 -93.5t-14.5 -137.5v-1147zM314 1544q0 2 1 3t1 5q14 63 18 74q16 59 39 94q74 109 207 108q37 0 147 -47q113 -47 154 -47q74 0 100 72q8 23 29 22h104q16 0 17 -12v-4q-33 -137 -89.5 -210t-154.5 -73 q-82 0 -328 95q-16 4 -20 4q-29 0 -49.5 -24.5t-30.5 -57.5q-6 -20 -25 -21h-98q-23 0 -22 19z" />
<glyph unicode="&#xd2;" d="M74 723q0 -121 2 -209t12 -143q16 -80 34.5 -143.5t49.5 -104.5q41 -53 102.5 -93t131.5 -57q49 -10 128.5 -12t190.5 -2t190.5 2t128.5 12q70 16 131.5 56.5t102.5 93.5q31 41 49.5 104.5t34.5 143.5q10 55 12 143t2 209v12q0 121 -2 209t-12 143q-16 80 -34.5 143.5 t-49.5 104.5q-41 53 -102.5 93t-131.5 57q-49 10 -128.5 12t-190.5 2t-190.5 -2t-128.5 -12q-70 -16 -131.5 -56t-102.5 -94q-31 -41 -49.5 -104.5t-34.5 -143.5q-10 -55 -12 -143t-2 -209v-12zM371 494v471q0 109 30.5 163t104.5 72q41 10 98.5 13.5t120.5 3.5t120.5 -3.5 t98.5 -13.5q74 -18 104.5 -72.5t30.5 -162.5v-471q0 -109 -30.5 -163.5t-104.5 -72.5q-41 -10 -98.5 -13t-120.5 -3t-120.5 3t-98.5 13q-74 18 -104.5 72.5t-30.5 163.5zM412 1807q0 39 30.5 63.5t78.5 24.5q45 0 115.5 -32t145 -78t142.5 -95t109 -86q10 -10 16 -16.5 t6 -10.5q0 -20 -20 -20q-6 0 -29 1t-29 1q-184 20 -295.5 46t-172 56.5t-79 67.5t-18.5 78z" />
<glyph unicode="&#xd3;" d="M74 723q0 -121 2 -209t12 -143q16 -80 34.5 -143.5t49.5 -104.5q41 -53 102.5 -93t131.5 -57q49 -10 128.5 -12t190.5 -2t190.5 2t128.5 12q70 16 131.5 56.5t102.5 93.5q31 41 49.5 104.5t34.5 143.5q10 55 12 143t2 209v12q0 121 -2 209t-12 143q-16 80 -34.5 143.5 t-49.5 104.5q-41 53 -102.5 93t-131.5 57q-49 10 -128.5 12t-190.5 2t-190.5 -2t-128.5 -12q-70 -16 -131.5 -56t-102.5 -94q-31 -41 -49.5 -104.5t-34.5 -143.5q-10 -55 -12 -143t-2 -209v-12zM371 494v471q0 109 30.5 163t104.5 72q41 10 98.5 13.5t120.5 3.5t120.5 -3.5 t98.5 -13.5q74 -18 104.5 -72.5t30.5 -162.5v-471q0 -109 -30.5 -163.5t-104.5 -72.5q-41 -10 -98.5 -13t-120.5 -3t-120.5 3t-98.5 13q-74 18 -104.5 72.5t-30.5 163.5zM389 1566q0 -20 21 -20q6 0 28.5 1t28.5 1q184 20 296 46t172.5 56.5t79 67.5t18.5 78q0 39 -31 63.5 t-78 24.5q-45 0 -115.5 -32t-145.5 -78t-143.5 -95t-107.5 -86l-16.5 -16.5t-6.5 -10.5z" />
<glyph unicode="&#xd4;" d="M74 723q0 -121 2 -209t12 -143q16 -80 34.5 -143.5t49.5 -104.5q41 -53 102.5 -93t131.5 -57q49 -10 128.5 -12t190.5 -2t190.5 2t128.5 12q70 16 131.5 56.5t102.5 93.5q31 41 49.5 104.5t34.5 143.5q10 55 12 143t2 209v12q0 121 -2 209t-12 143q-16 80 -34.5 143.5 t-49.5 104.5q-41 53 -102.5 93t-131.5 57q-49 10 -128.5 12t-190.5 2t-190.5 -2t-128.5 -12q-70 -16 -131.5 -56t-102.5 -94q-31 -41 -49.5 -104.5t-34.5 -143.5q-10 -55 -12 -143t-2 -209v-12zM360 1557q0 6 6 12l213 258q10 10 19.5 15.5t25.5 5.5h228q12 0 19 -4.5 t15 -14.5l220 -260q4 -4 4 -10q0 -10 -13 -11h-202q-12 0 -19.5 4.5t-13.5 10.5l-105 125q-6 8 -12 14t-10 6t-10 -6t-13 -14l-102 -123q-12 -16 -37 -17h-203q-10 0 -10 9zM371 494v471q0 109 30.5 163t104.5 72q41 10 98.5 13.5t120.5 3.5t120.5 -3.5t98.5 -13.5 q74 -18 104.5 -72.5t30.5 -162.5v-471q0 -109 -30.5 -163.5t-104.5 -72.5q-41 -10 -98.5 -13t-120.5 -3t-120.5 3t-98.5 13q-74 18 -104.5 72.5t-30.5 163.5z" />
<glyph unicode="&#xd5;" d="M74 723q0 -121 2 -209t12 -143q16 -80 34.5 -143.5t49.5 -104.5q41 -53 102.5 -93t131.5 -57q49 -10 128.5 -12t190.5 -2t190.5 2t128.5 12q70 16 131.5 56.5t102.5 93.5q31 41 49.5 104.5t34.5 143.5q10 55 12 143t2 209v12q0 121 -2 209t-12 143q-16 80 -34.5 143.5 t-49.5 104.5q-41 53 -102.5 93t-131.5 57q-49 10 -128.5 12t-190.5 2t-190.5 -2t-128.5 -12q-70 -16 -131.5 -56t-102.5 -94q-31 -41 -49.5 -104.5t-34.5 -143.5q-10 -55 -12 -143t-2 -209v-12zM336 1577q0 2 1 3t1 5q14 63 18 74q16 59 39 94q74 109 207 108q37 0 147 -47 q113 -47 154 -47q74 0 100 72q8 23 29 22h104q16 0 17 -12v-4q-33 -137 -89.5 -210t-154.5 -73q-82 0 -328 95q-16 4 -20 4q-29 0 -49.5 -24.5t-30.5 -57.5q-6 -20 -25 -21h-98q-23 0 -22 19zM371 494v471q0 109 30.5 163t104.5 72q41 10 98.5 13.5t120.5 3.5t120.5 -3.5 t98.5 -13.5q74 -18 104.5 -72.5t30.5 -162.5v-471q0 -109 -30.5 -163.5t-104.5 -72.5q-41 -10 -98.5 -13t-120.5 -3t-120.5 3t-98.5 13q-74 18 -104.5 72.5t-30.5 163.5z" />
<glyph unicode="&#xd6;" d="M74 723q0 -121 2 -209t12 -143q16 -80 34.5 -143.5t49.5 -104.5q41 -53 102.5 -93t131.5 -57q49 -10 128.5 -12t190.5 -2t190.5 2t128.5 12q70 16 131.5 56.5t102.5 93.5q31 41 49.5 104.5t34.5 143.5q10 55 12 143t2 209v12q0 121 -2 209t-12 143q-16 80 -34.5 143.5 t-49.5 104.5q-41 53 -102.5 93t-131.5 57q-49 10 -128.5 12t-190.5 2t-190.5 -2t-128.5 -12q-70 -16 -131.5 -56t-102.5 -94q-31 -41 -49.5 -104.5t-34.5 -143.5q-10 -55 -12 -143t-2 -209v-12zM371 494v471q0 109 30.5 163t104.5 72q41 10 98.5 13.5t120.5 3.5t120.5 -3.5 t98.5 -13.5q74 -18 104.5 -72.5t30.5 -162.5v-471q0 -109 -30.5 -163.5t-104.5 -72.5q-41 -10 -98.5 -13t-120.5 -3t-120.5 3t-98.5 13q-74 18 -104.5 72.5t-30.5 163.5zM412 1581q0 -20 20 -21h256q20 0 21 21v256q0 20 -21 20h-256q-20 0 -20 -20v-256zM807 1581 q0 -20 21 -21h256q20 0 20 21v256q0 20 -20 20h-256q-20 0 -21 -20v-256z" />
<glyph unicode="&#xd7;" horiz-adv-x="1060" d="M66 231q0 -8 8 -14l133 -135q6 -8 14 -8t15 8l276 276q8 8 14 9q2 0 15 -9l274 -276q6 -8 14 -8q6 0 15 8l143 143q8 8 8 15q0 2 -8 14l-276 274q-8 6 -9 15q0 6 9 14l276 277q8 8 8 14q0 2 -8 14l-135 133q-12 8 -14 9q-6 0 -15 -9l-276 -274q-6 -8 -15 -8q-8 0 -14 8 l-274 274q-12 8 -15 9q-6 0 -14 -9l-141 -141q-8 -8 -8 -14q0 -8 8 -15l276 -278q6 -6 6 -12t-8 -13l-274 -276q-8 -8 -8 -15z" />
<glyph unicode="&#xd8;" horiz-adv-x="1449" d="M74 723q0 -121 2 -209t12 -143q16 -80 34.5 -143.5t49.5 -104.5q29 -39 64 -68l-68 -141q-4 -8 -4 -12q0 -14 18 -15h236q16 0 23.5 7.5t13.5 19.5l22 49q47 -4 109 -4h139q111 0 190.5 2t128.5 12q70 16 131.5 56.5t102.5 93.5q31 41 49.5 104.5t34.5 143.5 q10 55 12 143t2 209v12q0 121 -2 209t-12 143q-16 80 -34.5 143.5t-49.5 104.5q-43 51 -96 88l73 154q4 8 5 12q0 14 -19 15h-233q-16 0 -24.5 -7.5t-14.5 -19.5l-39 -80q-43 2 -94 2h-111q-111 0 -190.5 -2t-128.5 -12q-70 -16 -131.5 -56t-102.5 -94q-31 -41 -49.5 -104.5 t-34.5 -143.5q-10 -55 -12 -143t-2 -209v-12zM371 494v471q0 109 30.5 163t104.5 72q41 10 98.5 13.5t120.5 3.5h70l-410 -850q-14 45 -14 127zM612 244l430 891q37 -51 37 -170v-471q0 -109 -30.5 -163.5t-104.5 -72.5q-41 -10 -98.5 -13t-120.5 -3h-57q-29 0 -56 2z" />
<glyph unicode="&#xd9;" horiz-adv-x="1312" d="M80 395q0 -57 15.5 -107t41.5 -95q27 -41 66 -80q31 -31 73 -58q41 -27 99.5 -41t126.5 -14h239q53 0 98.5 9t82.5 22q37 14 77.5 35.5t71.5 52.5q29 31 52.5 66.5t35.5 68.5q14 35 22.5 91t8.5 130v973q0 20 -21 20h-256q-20 0 -20 -20v-997q0 -27 -11.5 -59t-31 -59.5 t-48 -47t-63.5 -19.5h-215q-37 0 -64.5 19.5t-46 47t-27.5 59.5t-9 57v999q0 20 -21 20h-256q-20 0 -20 -20v-1053zM350 1796q0 39 30.5 63.5t78.5 24.5q45 0 115.5 -32t145 -78t142.5 -95t109 -86q10 -10 16 -16.5t6 -10.5q0 -20 -20 -20q-6 0 -29 1t-29 1 q-184 20 -295.5 46t-172 56.5t-79 67.5t-18.5 78z" />
<glyph unicode="&#xda;" horiz-adv-x="1312" d="M80 395q0 -57 15.5 -107t41.5 -95q27 -41 66 -80q31 -31 73 -58q41 -27 99.5 -41t126.5 -14h239q53 0 98.5 9t82.5 22q37 14 77.5 35.5t71.5 52.5q29 31 52.5 66.5t35.5 68.5q14 35 22.5 91t8.5 130v973q0 20 -21 20h-256q-20 0 -20 -20v-997q0 -27 -11.5 -59t-31 -59.5 t-48 -47t-63.5 -19.5h-215q-37 0 -64.5 19.5t-46 47t-27.5 59.5t-9 57v999q0 20 -21 20h-256q-20 0 -20 -20v-1053zM321 1538q0 -20 21 -20q6 0 28.5 1t28.5 1q184 20 296 46t172.5 56.5t79 67.5t18.5 78q0 39 -31 63.5t-78 24.5q-45 0 -115.5 -32t-145.5 -78t-143.5 -95 t-107.5 -86l-16.5 -16.5t-6.5 -10.5z" />
<glyph unicode="&#xdb;" horiz-adv-x="1312" d="M80 395q0 -57 15.5 -107t41.5 -95q27 -41 66 -80q31 -31 73 -58q41 -27 99.5 -41t126.5 -14h239q53 0 98.5 9t82.5 22q37 14 77.5 35.5t71.5 52.5q29 31 52.5 66.5t35.5 68.5q14 35 22.5 91t8.5 130v973q0 20 -21 20h-256q-20 0 -20 -20v-997q0 -27 -11.5 -59t-31 -59.5 t-48 -47t-63.5 -19.5h-215q-37 0 -64.5 19.5t-46 47t-27.5 59.5t-9 57v999q0 20 -21 20h-256q-20 0 -20 -20v-1053zM287 1534q0 6 6 12l213 258q10 10 19.5 15.5t25.5 5.5h228q12 0 19 -4.5t15 -14.5l220 -260q4 -4 4 -10q0 -10 -13 -11h-202q-12 0 -19.5 4.5t-13.5 10.5 l-105 125q-6 8 -12 14t-10 6t-10 -6t-13 -14l-102 -123q-12 -16 -37 -17h-203q-10 0 -10 9z" />
<glyph unicode="&#xdc;" horiz-adv-x="1312" d="M80 395q0 -57 15.5 -107t41.5 -95q27 -41 66 -80q31 -31 73 -58q41 -27 99.5 -41t126.5 -14h239q53 0 98.5 9t82.5 22q37 14 77.5 35.5t71.5 52.5q29 31 52.5 66.5t35.5 68.5q14 35 22.5 91t8.5 130v973q0 20 -21 20h-256q-20 0 -20 -20v-997q0 -27 -11.5 -59t-31 -59.5 t-48 -47t-63.5 -19.5h-215q-37 0 -64.5 19.5t-46 47t-27.5 59.5t-9 57v999q0 20 -21 20h-256q-20 0 -20 -20v-1053zM322 1542q0 -20 20 -21h256q20 0 21 21v256q0 20 -21 20h-256q-20 0 -20 -20v-256zM717 1542q0 -20 21 -21h256q20 0 20 21v256q0 20 -20 20h-256 q-20 0 -21 -20v-256z" />
<glyph unicode="&#xdd;" horiz-adv-x="1224" d="M41 1438l393 -848q23 -39 54.5 -57.5t52.5 -24.5v-457q0 -51 30 -51h248q29 0 29 51v457q23 6 49.5 24.5t54.5 57.5l381 850q4 10 1 19t-17 9h-277q-23 0 -34 -28l-281 -627q-8 -10 -13 -15t-20 -5q-23 0 -33 20l-290 631q-10 25 -35 24h-283q-27 0 -10 -30zM274 1527 q0 -20 21 -20q6 0 28.5 1t28.5 1q184 20 296 46t172.5 56.5t79 67.5t18.5 78q0 39 -31 63.5t-78 24.5q-45 0 -115.5 -32t-145.5 -78t-143.5 -95t-107.5 -86l-16.5 -16.5t-6.5 -10.5z" />
<glyph unicode="&#xde;" horiz-adv-x="1232" d="M84 20q0 -20 20 -20h269q20 0 20 20v291q0 10 15 15h376q193 0 316 147q115 139 114 336q0 197 -118 328q-121 133 -314 133h-381q-8 2 -8 18v160q0 20 -20 20h-269q-20 0 -20 -20v-1428zM393 602v397q0 10 15 15h282q119 0 168 -58q43 -53 43 -176q0 -92 -50 -145 t-138 -53h-299q-20 0 -21 20z" />
<glyph unicode="&#xdf;" horiz-adv-x="1228" d="M66 694q0 -20 20 -20h47q20 0 21 -21v-633q0 -20 20 -20h256q20 0 21 20v1201q0 20 20 20h236q74 0 116 -61q35 -53 35 -127q0 -139 -158 -140h-165q-20 0 -21 -20v-199q0 -20 21 -20h229q35 0 59.5 -20.5t34.5 -67.5q12 -53 12 -164v-45q0 -150 -77 -150q-53 0 -56 45 q-2 4 -2 13v18v123q0 20 -20 20h-189q-20 0 -20 -20v-268q0 -92 112 -131q78 -27 189 -27q131 0 227 61q111 70 111 197v322q0 156 -148 233q102 43 133 133q23 61 23 213q0 141 -98 225q-96 84 -240 84h-641q-20 0 -20 -20v-514q0 -20 -21 -21h-53q-14 -2 -14 -20v-199z " />
<glyph unicode="&#xe0;" horiz-adv-x="1085" d="M72 307q0 -27 8 -78t29.5 -102t60.5 -89t100 -38h715q20 0 21 20v676q0 66 -15.5 131.5t-49.5 118.5t-88 87t-132 34h-578q-20 0 -20 -20v-209q0 -20 20 -21h539q33 0 53.5 -28.5t20.5 -57.5q0 -35 -32 -60.5t-85 -25.5h-342q-61 0 -104 -35t-70 -85t-39 -109.5 t-12 -108.5zM248 1356q0 39 30.5 63.5t78.5 24.5q45 0 115.5 -32t145 -78t142.5 -95t109 -86q10 -10 16 -16.5t6 -10.5q0 -20 -20 -20q-6 0 -29 1t-29 1q-184 20 -295.5 46t-172 56.5t-79 67.5t-18.5 78zM305 328q0 29 18.5 52t47.5 23h364q20 0 21 -20v-123q0 -20 -21 -20 h-352q-37 0 -57.5 26.5t-20.5 61.5z" />
<glyph unicode="&#xe1;" horiz-adv-x="1085" d="M72 307q0 -27 8 -78t29.5 -102t60.5 -89t100 -38h715q20 0 21 20v676q0 66 -15.5 131.5t-49.5 118.5t-88 87t-132 34h-578q-20 0 -20 -20v-209q0 -20 20 -21h539q33 0 53.5 -28.5t20.5 -57.5q0 -35 -32 -60.5t-85 -25.5h-342q-61 0 -104 -35t-70 -85t-39 -109.5 t-12 -108.5zM200 1126q0 -20 21 -20q6 0 28.5 1t28.5 1q184 20 296 46t172.5 56.5t79 67.5t18.5 78q0 39 -31 63.5t-78 24.5q-45 0 -115.5 -32t-145.5 -78t-143.5 -95t-107.5 -86l-16.5 -16.5t-6.5 -10.5zM305 328q0 29 18.5 52t47.5 23h364q20 0 21 -20v-123q0 -20 -21 -20 h-352q-37 0 -57.5 26.5t-20.5 61.5z" />
<glyph unicode="&#xe2;" horiz-adv-x="1077" d="M72 307q0 -27 8 -78t29.5 -102t60.5 -89t100 -38h715q20 0 21 20v676q0 66 -15.5 131.5t-49.5 118.5t-88 87t-132 34h-578q-20 0 -20 -20v-209q0 -20 20 -21h539q33 0 53.5 -28.5t20.5 -57.5q0 -35 -32 -60.5t-85 -25.5h-342q-61 0 -104 -35t-70 -85t-39 -109.5 t-12 -108.5zM168 1139q0 6 6 12l213 258q10 10 19.5 15.5t25.5 5.5h228q12 0 19 -4.5t15 -14.5l220 -260q4 -4 4 -10q0 -10 -13 -11h-202q-12 0 -19.5 4.5t-13.5 10.5l-105 125q-6 8 -12 14t-10 6t-10 -6t-13 -14l-102 -123q-12 -16 -37 -17h-203q-10 0 -10 9zM305 328 q0 29 18.5 52t47.5 23h364q20 0 21 -20v-123q0 -20 -21 -20h-352q-37 0 -57.5 26.5t-20.5 61.5z" />
<glyph unicode="&#xe3;" horiz-adv-x="1085" d="M64 1141q0 2 1 3t1 5q14 63 18 74q16 59 39 94q74 109 207 108q37 0 147 -47q113 -47 154 -47q74 0 100 72q8 23 29 22h104q16 0 17 -12v-4q-33 -137 -89.5 -210t-154.5 -73q-82 0 -328 95q-16 4 -20 4q-29 0 -49.5 -24.5t-30.5 -57.5q-6 -20 -25 -21h-98q-23 0 -22 19z M72 307q0 -27 8 -78t29.5 -102t60.5 -89t100 -38h715q20 0 21 20v676q0 66 -15.5 131.5t-49.5 118.5t-88 87t-132 34h-578q-20 0 -20 -20v-209q0 -20 20 -21h539q33 0 53.5 -28.5t20.5 -57.5q0 -35 -32 -60.5t-85 -25.5h-342q-61 0 -104 -35t-70 -85t-39 -109.5t-12 -108.5z M305 328q0 29 18.5 52t47.5 23h364q20 0 21 -20v-123q0 -20 -21 -20h-352q-37 0 -57.5 26.5t-20.5 61.5z" />
<glyph unicode="&#xe4;" horiz-adv-x="1085" d="M72 307q0 -27 8 -78t29.5 -102t60.5 -89t100 -38h715q20 0 21 20v676q0 66 -15.5 131.5t-49.5 118.5t-88 87t-132 34h-578q-20 0 -20 -20v-209q0 -20 20 -21h539q33 0 53.5 -28.5t20.5 -57.5q0 -35 -32 -60.5t-85 -25.5h-342q-61 0 -104 -35t-70 -85t-39 -109.5 t-12 -108.5zM82 1143q0 -20 20 -21h256q20 0 21 21v256q0 20 -21 20h-256q-20 0 -20 -20v-256zM305 328q0 29 18.5 52t47.5 23h364q20 0 21 -20v-123q0 -20 -21 -20h-352q-37 0 -57.5 26.5t-20.5 61.5zM477 1143q0 -20 21 -21h256q20 0 20 21v256q0 20 -20 20h-256 q-20 0 -21 -20v-256z" />
<glyph unicode="&#xe5;" horiz-adv-x="1085" d="M72 307q0 -27 8 -78t29.5 -102t60.5 -89t100 -38h715q20 0 21 20v676q0 66 -15.5 131.5t-49.5 118.5t-88 87t-132 34h-578q-20 0 -20 -20v-209q0 -20 20 -21h539q33 0 53.5 -28.5t20.5 -57.5q0 -35 -32 -60.5t-85 -25.5h-342q-61 0 -104 -35t-70 -85t-39 -109.5 t-12 -108.5zM271 1250q0 76 60.5 128t136.5 52q79 0 138.5 -51.5t59.5 -128.5t-59.5 -127.5t-138.5 -50.5q-76 0 -136.5 50.5t-60.5 127.5zM305 328q0 29 18.5 52t47.5 23h364q20 0 21 -20v-123q0 -20 -21 -20h-352q-37 0 -57.5 26.5t-20.5 61.5zM372 1250q0 -39 28.5 -65 t67.5 -26q41 0 69 26t28 65q0 38 -29.5 63.5t-67.5 25.5q-39 0 -67.5 -24.5t-28.5 -64.5z" />
<glyph unicode="&#xe6;" horiz-adv-x="1886" d="M78 307q0 -27 8 -78t29.5 -102t60.5 -89t100 -38h1475q20 0 21 20v209q0 20 -21 21h-532q-80 0 -138.5 33.5t-68.5 87.5v32q4 11 18 11h758q20 0 20 20v213q0 96 -27.5 174t-87 132.5t-151.5 84t-219 29.5q-102 0 -201.5 -24.5t-179.5 -86.5q-35 49 -88 80t-127 31h-577 q-20 0 -21 -20v-209q0 -20 21 -21h538q33 0 53.5 -28.5t20.5 -57.5q0 -35 -32 -60.5t-85 -25.5h-342q-61 0 -104 -35t-70 -85t-39 -109.5t-12 -108.5zM311 328q0 29 18.5 52t47.5 23h364q20 0 21 -20v-123q0 -20 -21 -20h-352q-37 0 -57.5 26.5t-20.5 61.5zM1012 662v30 q8 35 40.5 62.5t75.5 48t91.5 31t85.5 10.5q129 0 200.5 -46t71.5 -124q0 -20 -21 -21h-526q-16 0 -18 9z" />
<glyph unicode="&#xe7;" horiz-adv-x="1028" d="M61 444q0 -78 33 -156.5t94.5 -143t149.5 -104.5t201 -40h385q20 0 20 20v209q0 20 -20 21h-387q-123 0 -179.5 64.5t-56.5 166.5v88q0 104 58.5 176t177.5 72h387q20 0 20 21v209q0 20 -20 20h-346q-135 0 -233.5 -31.5t-161 -90t-92.5 -141.5t-30 -188v-172zM313 -408 q0 6 2 11l33 67q4 10 14 11q4 0 6 -3q53 -20 92 -24t62 -4q39 0 71.5 21.5t32.5 58.5q0 74 -86 73q-16 0 -32.5 -3t-36.5 -7q-4 0 -5.5 -1t-5.5 -1q-10 0 -18 8l-23 19q-4 2 -4 12t4 16l99 142q8 12 26 12h94q8 0 9 -6q0 -2 -4 -10l-52 -70q-6 -10 -6 -14q0 -6 10 -6 q8 0 15 2q8 2 14 2h14q82 0 134 -39q59 -47 59 -123q0 -100 -90 -156q-78 -47 -182 -47q-100 0 -236 45q-10 4 -10 14z" />
<glyph unicode="&#xe8;" horiz-adv-x="1183" d="M31 510q0 -135 29.5 -231.5t100 -159t186.5 -91t288 -28.5h346q20 0 20 20v209q0 20 -20 21h-487q-43 0 -82 11t-67 30.5t-44 45t-16 56.5q0 21 20 21h758q20 0 20 20v213q0 96 -27.5 174t-87 132.5t-151.5 84t-219 29.5q-102 0 -203.5 -25.5t-182.5 -89t-131 -171 t-50 -271.5zM285 674q0 39 30.5 70.5t76.5 53t96.5 34t91.5 12.5q129 0 200.5 -46t71.5 -124q0 -20 -21 -21h-526q-20 0 -20 21zM309 1356q0 39 30.5 63.5t78.5 24.5q45 0 115.5 -32t145 -78t142.5 -95t109 -86q10 -10 16 -16.5t6 -10.5q0 -20 -20 -20q-6 0 -29 1t-29 1 q-184 20 -295.5 46t-172 56.5t-79 67.5t-18.5 78z" />
<glyph unicode="&#xe9;" horiz-adv-x="1183" d="M31 510q0 -135 29.5 -231.5t100 -159t186.5 -91t288 -28.5h346q20 0 20 20v209q0 20 -20 21h-487q-43 0 -82 11t-67 30.5t-44 45t-16 56.5q0 21 20 21h758q20 0 20 20v213q0 96 -27.5 174t-87 132.5t-151.5 84t-219 29.5q-102 0 -203.5 -25.5t-182.5 -89t-131 -171 t-50 -271.5zM280 1126q0 -20 21 -20q6 0 28.5 1t28.5 1q184 20 296 46t172.5 56.5t79 67.5t18.5 78q0 39 -31 63.5t-78 24.5q-45 0 -115.5 -32t-145.5 -78t-143.5 -95t-107.5 -86l-16.5 -16.5t-6.5 -10.5zM285 674q0 39 30.5 70.5t76.5 53t96.5 34t91.5 12.5 q129 0 200.5 -46t71.5 -124q0 -20 -21 -21h-526q-20 0 -20 21z" />
<glyph unicode="&#xea;" horiz-adv-x="1183" d="M31 510q0 -135 29.5 -231.5t100 -159t186.5 -91t288 -28.5h346q20 0 20 20v209q0 20 -20 21h-487q-43 0 -82 11t-67 30.5t-44 45t-16 56.5q0 21 20 21h758q20 0 20 20v213q0 96 -27.5 174t-87 132.5t-151.5 84t-219 29.5q-102 0 -203.5 -25.5t-182.5 -89t-131 -171 t-50 -271.5zM270 1139q0 6 6 12l213 258q10 10 19.5 15.5t25.5 5.5h228q12 0 19 -4.5t15 -14.5l220 -260q4 -4 4 -10q0 -10 -13 -11h-202q-12 0 -19.5 4.5t-13.5 10.5l-105 125q-6 8 -12 14t-10 6t-10 -6t-13 -14l-102 -123q-12 -16 -37 -17h-203q-10 0 -10 9zM285 674 q0 39 30.5 70.5t76.5 53t96.5 34t91.5 12.5q129 0 200.5 -46t71.5 -124q0 -20 -21 -21h-526q-20 0 -20 21z" />
<glyph unicode="&#xeb;" horiz-adv-x="1183" d="M31 510q0 -135 29.5 -231.5t100 -159t186.5 -91t288 -28.5h346q20 0 20 20v209q0 20 -20 21h-487q-43 0 -82 11t-67 30.5t-44 45t-16 56.5q0 21 20 21h758q20 0 20 20v213q0 96 -27.5 174t-87 132.5t-151.5 84t-219 29.5q-102 0 -203.5 -25.5t-182.5 -89t-131 -171 t-50 -271.5zM82 1133q0 -20 20 -21h256q20 0 21 21v256q0 20 -21 20h-256q-20 0 -20 -20v-256zM285 674q0 39 30.5 70.5t76.5 53t96.5 34t91.5 12.5q129 0 200.5 -46t71.5 -124q0 -20 -21 -21h-526q-20 0 -20 21zM477 1133q0 -20 21 -21h256q20 0 20 21v256q0 20 -20 20 h-256q-20 0 -21 -20v-256z" />
<glyph unicode="&#xec;" horiz-adv-x="421" d="M-98 1356q0 39 30.5 63.5t78.5 24.5q45 0 115.5 -32t145 -78t142.5 -95t109 -86q10 -10 16 -16.5t6 -10.5q0 -20 -20 -20q-6 0 -29 1t-29 1q-184 20 -295.5 46t-172 56.5t-79 67.5t-18.5 78zM84 20q0 -20 20 -20h209q20 0 21 20v1027q0 20 -21 20h-209q-20 0 -20 -20 v-1027z" />
<glyph unicode="&#xed;" horiz-adv-x="421" d="M-123 1126q0 -20 21 -20q6 0 28.5 1t28.5 1q184 20 296 46t172.5 56.5t79 67.5t18.5 78q0 39 -31 63.5t-78 24.5q-45 0 -115.5 -32t-145.5 -78t-143.5 -95t-107.5 -86l-16.5 -16.5t-6.5 -10.5zM84 20q0 -20 20 -20h209q20 0 21 20v1027q0 20 -21 20h-209q-20 0 -20 -20 v-1027z" />
<glyph unicode="&#xee;" horiz-adv-x="421" d="M-164 1139q0 6 6 12l213 258q10 10 19.5 15.5t25.5 5.5h228q12 0 19 -4.5t15 -14.5l220 -260q4 -4 4 -10q0 -10 -13 -11h-202q-12 0 -19.5 4.5t-13.5 10.5l-105 125q-6 8 -12 14t-10 6t-10 -6t-13 -14l-102 -123q-12 -16 -37 -17h-203q-10 0 -10 9zM84 20q0 -20 20 -20 h209q20 0 21 20v1027q0 20 -21 20h-209q-20 0 -20 -20v-1027z" />
<glyph unicode="&#xef;" horiz-adv-x="421" d="M-12 1128q0 -15 15 -16h194q15 0 16 16v194q0 16 -16 16h-194q-15 0 -15 -16v-194zM84 20q0 -20 20 -20h209q20 0 21 20v1027q0 20 -21 20h-209q-20 0 -20 -20v-1027zM287 1128q0 -15 16 -16h194q15 0 15 16v194q0 16 -15 16h-194q-15 0 -16 -16v-194z" />
<glyph unicode="&#xf0;" horiz-adv-x="1224" d="M47 530q0 111 35 209.5t99.5 172t155.5 116.5t204 43q154 0 268 -108q-41 86 -82 135q-16 16 -45 44.5t-70 67.5l-194 -86q-27 -10 -43 2l-96 80q-16 14 6 25q45 18 90 35.5t88 40.5q20 10 0 24q-31 23 -57.5 39t-51.5 27q-10 4 -8 10t10 10l183 84q10 4 20 3t19 -5 q41 -16 69.5 -32.5t46.5 -30.5q14 -10 23.5 -11.5t23.5 5.5l164 71q18 8 37 -6l96 -80q14 -12 -2 -20l-172 -76q-14 -8 -2 -21q303 -322 303 -682q0 -147 -39 -266t-111.5 -203t-178 -129t-238.5 -45q-127 0 -228.5 40t-173 114t-110.5 176.5t-39 226.5zM346 528 q0 -63 15.5 -120.5t47 -100.5t81 -68.5t116.5 -25.5q68 0 118 26.5t82 70.5t47 103.5t15 125.5q0 129 -67.5 208.5t-196.5 79.5q-63 0 -111.5 -23.5t-81 -64.5t-49 -95t-16.5 -116z" />
<glyph unicode="&#xf1;" horiz-adv-x="1126" d="M64 1157q0 2 1 3t1 5q14 63 18 74q16 59 39 94q74 109 207 108q37 0 147 -47q113 -47 154 -47q74 0 100 72q8 23 29 22h104q16 0 17 -12v-4q-33 -137 -89.5 -210t-154.5 -73q-82 0 -328 95q-16 4 -20 4q-29 0 -49.5 -24.5t-30.5 -57.5q-6 -20 -25 -21h-98q-23 0 -22 19z M84 82q0 -33 13.5 -57.5t41.5 -24.5h137q57 0 58 66v722q0 18 19.5 35t41.5 17h199q43 0 80 -7.5t64.5 -26t43 -51t15.5 -83.5v-652q0 -20 20 -20h207q23 0 23 20v695q0 68 -27 131t-75 112.5t-111.5 79t-137.5 29.5h-463q-66 0 -107.5 -42t-41.5 -93v-850z" />
<glyph unicode="&#xf2;" horiz-adv-x="1136" d="M59 385q0 -72 14.5 -140.5t51.5 -122.5t98.5 -88t155.5 -34h364q94 0 162 18.5t112 65.5t65.5 127t21.5 203v346q0 74 -27.5 130t-71.5 96t-100.5 60.5t-111.5 20.5h-414q-66 0 -124 -22.5t-101 -64.5t-69 -101.5t-26 -133.5v-360zM283 1356q0 39 30.5 63.5t78.5 24.5 q45 0 115.5 -32t145 -78t142.5 -95t109 -86q10 -10 16 -16.5t6 -10.5q0 -20 -20 -20q-6 0 -29 1t-29 1q-184 20 -295.5 46t-172 56.5t-79 67.5t-18.5 78zM305 385v328q0 29 14.5 49t36 32.5t48 17.5t53.5 5h223q31 0 61.5 -6t55 -19.5t40 -33t15.5 -43.5v-178v-164 q0 -53 -54.5 -88t-127.5 -35h-189q-27 0 -57.5 5t-57 20.5t-44 42t-17.5 67.5z" />
<glyph unicode="&#xf3;" horiz-adv-x="1136" d="M59 385q0 -72 14.5 -140.5t51.5 -122.5t98.5 -88t155.5 -34h364q94 0 162 18.5t112 65.5t65.5 127t21.5 203v346q0 74 -27.5 130t-71.5 96t-100.5 60.5t-111.5 20.5h-414q-66 0 -124 -22.5t-101 -64.5t-69 -101.5t-26 -133.5v-360zM253 1126q0 -20 21 -20q6 0 28.5 1 t28.5 1q184 20 296 46t172.5 56.5t79 67.5t18.5 78q0 39 -31 63.5t-78 24.5q-45 0 -115.5 -32t-145.5 -78t-143.5 -95t-107.5 -86l-16.5 -16.5t-6.5 -10.5zM305 385v328q0 29 14.5 49t36 32.5t48 17.5t53.5 5h223q31 0 61.5 -6t55 -19.5t40 -33t15.5 -43.5v-178v-164 q0 -53 -54.5 -88t-127.5 -35h-189q-27 0 -57.5 5t-57 20.5t-44 42t-17.5 67.5z" />
<glyph unicode="&#xf4;" horiz-adv-x="1136" d="M59 385q0 -72 14.5 -140.5t51.5 -122.5t98.5 -88t155.5 -34h364q94 0 162 18.5t112 65.5t65.5 127t21.5 203v346q0 74 -27.5 130t-71.5 96t-100.5 60.5t-111.5 20.5h-414q-66 0 -124 -22.5t-101 -64.5t-69 -101.5t-26 -133.5v-360zM223 1139q0 6 6 12l213 258 q10 10 19.5 15.5t25.5 5.5h228q12 0 19 -4.5t15 -14.5l220 -260q4 -4 4 -10q0 -10 -13 -11h-202q-12 0 -19.5 4.5t-13.5 10.5l-105 125q-6 8 -12 14t-10 6t-10 -6t-13 -14l-102 -123q-12 -16 -37 -17h-203q-10 0 -10 9zM305 385v328q0 29 14.5 49t36 32.5t48 17.5t53.5 5 h223q31 0 61.5 -6t55 -19.5t40 -33t15.5 -43.5v-178v-164q0 -53 -54.5 -88t-127.5 -35h-189q-27 0 -57.5 5t-57 20.5t-44 42t-17.5 67.5z" />
<glyph unicode="&#xf5;" horiz-adv-x="1136" d="M59 385q0 -72 14.5 -140.5t51.5 -122.5t98.5 -88t155.5 -34h364q94 0 162 18.5t112 65.5t65.5 127t21.5 203v346q0 74 -27.5 130t-71.5 96t-100.5 60.5t-111.5 20.5h-414q-66 0 -124 -22.5t-101 -64.5t-69 -101.5t-26 -133.5v-360zM64 1157q0 2 1 3t1 5q14 63 18 74 q16 59 39 94q74 109 207 108q37 0 147 -47q113 -47 154 -47q74 0 100 72q8 23 29 22h104q16 0 17 -12v-4q-33 -137 -89.5 -210t-154.5 -73q-82 0 -328 95q-16 4 -20 4q-29 0 -49.5 -24.5t-30.5 -57.5q-6 -20 -25 -21h-98q-23 0 -22 19zM305 385v328q0 29 14.5 49t36 32.5 t48 17.5t53.5 5h223q31 0 61.5 -6t55 -19.5t40 -33t15.5 -43.5v-178v-164q0 -53 -54.5 -88t-127.5 -35h-189q-27 0 -57.5 5t-57 20.5t-44 42t-17.5 67.5z" />
<glyph unicode="&#xf6;" horiz-adv-x="1136" d="M59 385q0 -72 14.5 -140.5t51.5 -122.5t98.5 -88t155.5 -34h364q94 0 162 18.5t112 65.5t65.5 127t21.5 203v346q0 74 -27.5 130t-71.5 96t-100.5 60.5t-111.5 20.5h-414q-66 0 -124 -22.5t-101 -64.5t-69 -101.5t-26 -133.5v-360zM268 1148q0 -18 18 -19h234q18 0 19 19 v233q0 18 -19 18h-234q-18 0 -18 -18v-233zM305 385v328q0 29 14.5 49t36 32.5t48 17.5t53.5 5h223q31 0 61.5 -6t55 -19.5t40 -33t15.5 -43.5v-178v-164q0 -53 -54.5 -88t-127.5 -35h-189q-27 0 -57.5 5t-57 20.5t-44 42t-17.5 67.5zM629 1148q0 -18 19 -19h234q18 0 18 19 v233q0 18 -18 18h-234q-18 0 -19 -18v-233z" />
<glyph unicode="&#xf7;" horiz-adv-x="1161" d="M55 623q0 -20 21 -21h1016q20 0 20 21v196q0 20 -20 21h-1016q-20 0 -21 -21v-196zM442 190q0 -20 21 -20h235q20 0 21 20v236q0 20 -21 20h-235q-20 0 -21 -20v-236zM442 1016q0 -20 21 -21h235q20 0 21 21v235q0 20 -21 21h-235q-20 0 -21 -21v-235z" />
<glyph unicode="&#xf8;" horiz-adv-x="1169" d="M59 385q0 -104 32 -198.5t118 -145.5l-53 -96q-2 -4 -4 -4v-4q0 -10 16 -11h188q12 0 18.5 4t12.5 15l29 55h327q94 0 162 18.5t112 65.5t65.5 127t21.5 203v346q0 86 -38 149.5t-97 102.5l63 114l2 4q2 0 2 5q0 10 -14 10h-191q-20 0 -28 -19l-33 -59h-391 q-66 0 -124 -22.5t-101 -64.5t-69 -101.5t-26 -133.5v-360zM305 385v328q0 29 14.5 49t36 32.5t48 17.5t53.5 5h176l-287 -526q-18 16 -29.5 37.5t-11.5 56.5zM553 250l281 512q18 -22 18 -47v-342q0 -53 -54.5 -88t-127.5 -35h-117z" />
<glyph unicode="&#xf9;" horiz-adv-x="1038" d="M80 240q0 -66 40 -113t103.5 -78t144.5 -45t164 -14q82 0 163 14t145.5 45t104.5 78t40 113v807q0 20 -20 20h-209q-21 0 -21 -20v-719q0 -18 -17.5 -35t-46 -29t-64.5 -18t-75 -6t-75.5 6t-64 18t-45 28.5t-17.5 35.5v719q0 20 -21 20h-209q-20 0 -20 -20v-807z M209 1356q0 39 30.5 63.5t78.5 24.5q45 0 115.5 -32t145 -78t142.5 -95t109 -86q10 -10 16 -16.5t6 -10.5q0 -20 -20 -20q-6 0 -29 1t-29 1q-184 20 -295.5 46t-172 56.5t-79 67.5t-18.5 78z" />
<glyph unicode="&#xfa;" horiz-adv-x="1038" d="M80 240q0 -66 40 -113t103.5 -78t144.5 -45t164 -14q82 0 163 14t145.5 45t104.5 78t40 113v807q0 20 -20 20h-209q-21 0 -21 -20v-719q0 -18 -17.5 -35t-46 -29t-64.5 -18t-75 -6t-75.5 6t-64 18t-45 28.5t-17.5 35.5v719q0 20 -21 20h-209q-20 0 -20 -20v-807z M196 1126q0 -20 21 -20q6 0 28.5 1t28.5 1q184 20 296 46t172.5 56.5t79 67.5t18.5 78q0 39 -31 63.5t-78 24.5q-45 0 -115.5 -32t-145.5 -78t-143.5 -95t-107.5 -86l-16.5 -16.5t-6.5 -10.5z" />
<glyph unicode="&#xfb;" horiz-adv-x="1038" d="M80 240q0 -66 40 -113t103.5 -78t144.5 -45t164 -14q82 0 163 14t145.5 45t104.5 78t40 113v807q0 20 -20 20h-209q-21 0 -21 -20v-719q0 -18 -17.5 -35t-46 -29t-64.5 -18t-75 -6t-75.5 6t-64 18t-45 28.5t-17.5 35.5v719q0 20 -21 20h-209q-20 0 -20 -20v-807z M155 1139q0 6 6 12l213 258q10 10 19.5 15.5t25.5 5.5h228q12 0 19 -4.5t15 -14.5l220 -260q4 -4 4 -10q0 -10 -13 -11h-202q-12 0 -19.5 4.5t-13.5 10.5l-105 125q-6 8 -12 14t-10 6t-10 -6t-13 -14l-102 -123q-12 -16 -37 -17h-203q-10 0 -10 9z" />
<glyph unicode="&#xfc;" horiz-adv-x="1038" d="M80 240q0 -66 40 -113t103.5 -78t144.5 -45t164 -14q82 0 163 14t145.5 45t104.5 78t40 113v807q0 20 -20 20h-209q-21 0 -21 -20v-719q0 -18 -17.5 -35t-46 -29t-64.5 -18t-75 -6t-75.5 6t-64 18t-45 28.5t-17.5 35.5v719q0 20 -21 20h-209q-20 0 -20 -20v-807z M217 1148q0 -17 18 -18h225q18 0 19 18v226q0 18 -19 18h-225q-18 0 -18 -18v-226zM565 1148q0 -17 19 -18h226q17 0 17 18v226q0 18 -17 18h-226q-18 0 -19 -18v-226z" />
<glyph unicode="&#xfd;" horiz-adv-x="1204" d="M-4 1053q0 -6 2 -9l332 -976q10 -31 29.5 -44.5t38 -17.5t32.5 -4t14 -4v-2l-143 -379v-6q0 -8 10 -8h244q27 0 33 16l547 1425q2 4 2 9q0 14 -21 14h-246q-18 0 -22 -12l-260 -686q-2 -6 -7.5 -19.5t-11.5 -27t-14 -23.5t-16 -10t-16.5 11t-15.5 24.5t-11 27t-7 19.5 l-217 682q-6 14 -24 14h-238q-14 0 -14 -14zM274 1126q0 -20 21 -20q6 0 28.5 1t28.5 1q184 20 296 46t172.5 56.5t79 67.5t18.5 78q0 39 -31 63.5t-78 24.5q-45 0 -115.5 -32t-145.5 -78t-143.5 -95t-107.5 -86l-16.5 -16.5t-6.5 -10.5z" />
<glyph unicode="&#xfe;" horiz-adv-x="1157" d="M82 -403q0 -20 20 -21h230q20 0 20 21v405q10 -2 23 -2h26h347q94 0 164.5 18.5t117.5 65.5t71.5 127t24.5 203v346q0 74 -30.5 130t-77.5 96t-106.5 60.5t-114.5 20.5h-396q-12 0 -24 -1t-25 -3v385q0 20 -20 20h-230q-20 0 -20 -20v-1851zM352 385v328q0 29 14.5 49 t36 32.5t48 17.5t53.5 5h180q31 0 61.5 -6t55 -19.5t40 -32.5t15.5 -44v-342q0 -53 -54 -88t-128 -35h-146q-27 0 -57.5 5t-57 20.5t-44 42t-17.5 67.5z" />
<glyph unicode="&#xff;" horiz-adv-x="1204" d="M-4 1053q0 -6 2 -9l332 -976q10 -31 29.5 -44.5t38 -17.5t32.5 -4t14 -4v-2l-143 -379v-6q0 -8 10 -8h244q27 0 33 16l547 1425q2 4 2 9q0 14 -21 14h-246q-18 0 -22 -12l-260 -686q-2 -6 -7.5 -19.5t-11.5 -27t-14 -23.5t-16 -10t-16.5 11t-15.5 24.5t-11 27t-7 19.5 l-217 682q-6 14 -24 14h-238q-14 0 -14 -14zM292 1163q0 -18 18 -19h230q18 0 19 19v229q0 18 -19 18h-230q-18 0 -18 -18v-229zM646 1163q0 -18 19 -19h230q18 0 18 19v229q0 18 -18 18h-230q-18 0 -19 -18v-229z" />
<glyph unicode="&#x152;" horiz-adv-x="2136" d="M78 729q0 -117 2 -200t12 -136q14 -78 32.5 -138t47.5 -99q41 -51 99.5 -88t123.5 -54q47 -10 123 -12t180 -2q106 0 182 2t124 12q29 6 56 17.5t52 25.5q29 -25 60.5 -41t66.5 -16h793q20 0 20 20v226q0 20 -20 20h-678q-20 0 -21 21v297q0 20 21 20h628q20 0 21 21v235 q0 20 -21 21h-628q-20 0 -21 20v279q0 23 21 22h678q20 0 20 21v225q0 20 -27 20h-694q-123 0 -201 -69q-55 37 -126 57q-47 10 -123 11t-183 1q-104 0 -180 -1t-123 -11q-66 -16 -124 -54t-99 -89q-29 -39 -47.5 -99.5t-32.5 -136.5q-10 -53 -12 -137t-2 -201v-10zM360 510 v448q0 104 29 156.5t100 69.5q41 10 95.5 13t113.5 3t114.5 -2t94.5 -12q72 -18 100.5 -70.5t28.5 -157.5v-469q0 -94 -31.5 -141t-97.5 -63q-39 -10 -94 -12.5t-115 -2.5q-59 0 -113.5 2t-95.5 13q-72 18 -100.5 69.5t-28.5 155.5z" />
<glyph unicode="&#x153;" horiz-adv-x="2000" d="M80 385q0 -72 14.5 -140.5t51 -122.5t98 -88t155.5 -34h365q98 0 166.5 19.5t111.5 70.5q141 -90 435 -90h346q20 0 20 20v209q0 20 -20 21h-488q-43 0 -82 11t-66.5 30.5t-44 45t-16.5 56.5q1 21 21 21h758q20 0 20 20v213q0 96 -27.5 174t-87 132.5t-151.5 84 t-219 29.5q-102 0 -202.5 -25.5t-182.5 -87.5q-47 53 -111.5 83t-130.5 30h-414q-66 0 -124 -22.5t-101 -64.5t-68.5 -101.5t-25.5 -133.5v-360zM326 385v328q0 29 14 49t35.5 32.5t48.5 17.5t53 5h223q31 0 62 -6t55.5 -19.5t39.5 -32.5t15 -44v-342q0 -53 -54 -88 t-128 -35h-188q-27 0 -57.5 5t-57.5 20.5t-44 42t-17 67.5zM1159 674q0 39 31 70.5t77 53t96 34t91 12.5q129 0 200.5 -46t71.5 -124q0 -20 -20 -21h-526q-20 0 -21 21z" />
<glyph unicode="&#x178;" horiz-adv-x="1224" d="M41 1438l393 -848q23 -39 54.5 -57.5t52.5 -24.5v-457q0 -51 30 -51h248q29 0 29 51v457q23 6 49.5 24.5t54.5 57.5l381 850q4 10 1 19t-17 9h-277q-23 0 -34 -28l-281 -627q-8 -10 -13 -15t-20 -5q-23 0 -33 20l-290 631q-10 25 -35 24h-283q-27 0 -10 -30zM270 1542 q0 -20 20 -21h256q20 0 21 21v256q0 20 -21 20h-256q-20 0 -20 -20v-256zM665 1542q0 -20 21 -21h256q20 0 20 21v256q0 20 -20 20h-256q-20 0 -21 -20v-256z" />
<glyph unicode="&#x2c6;" horiz-adv-x="847" d="M49 1139q0 6 6 12l213 258q10 10 19.5 15.5t25.5 5.5h228q12 0 19 -4.5t15 -14.5l220 -260q4 -4 4 -10q0 -10 -13 -11h-202q-12 0 -19.5 4.5t-13.5 10.5l-105 125q-6 8 -12 14t-10 6t-10 -6t-13 -14l-102 -123q-12 -16 -37 -17h-203q-10 0 -10 9z" />
<glyph unicode="&#x2dc;" horiz-adv-x="946" d="M66 1184q0 2 1 3t1 5q14 63 18 74q16 59 39 94q74 109 207 108q37 0 147 -47q113 -47 154 -47q74 0 100 72q8 23 29 22h104q16 0 17 -12v-4q-33 -137 -89.5 -210t-154.5 -73q-82 0 -328 95q-16 4 -20 4q-29 0 -49.5 -24.5t-30.5 -57.5q-6 -20 -25 -21h-98q-23 0 -22 19z " />
<glyph unicode="&#x2000;" horiz-adv-x="971" />
<glyph unicode="&#x2001;" horiz-adv-x="1942" />
<glyph unicode="&#x2002;" horiz-adv-x="971" />
<glyph unicode="&#x2003;" horiz-adv-x="1942" />
<glyph unicode="&#x2004;" horiz-adv-x="647" />
<glyph unicode="&#x2005;" horiz-adv-x="485" />
<glyph unicode="&#x2006;" horiz-adv-x="323" />
<glyph unicode="&#x2007;" horiz-adv-x="323" />
<glyph unicode="&#x2008;" horiz-adv-x="242" />
<glyph unicode="&#x2009;" horiz-adv-x="388" />
<glyph unicode="&#x200a;" horiz-adv-x="107" />
<glyph unicode="&#x2010;" horiz-adv-x="714" d="M84 526q0 -20 20 -20h504q20 0 21 20v222q0 20 -21 20h-504q-20 0 -20 -18v-224z" />
<glyph unicode="&#x2011;" horiz-adv-x="714" d="M84 526q0 -20 20 -20h504q20 0 21 20v222q0 20 -21 20h-504q-20 0 -20 -18v-224z" />
<glyph unicode="&#x2012;" horiz-adv-x="714" d="M84 526q0 -20 20 -20h504q20 0 21 20v222q0 20 -21 20h-504q-20 0 -20 -18v-224z" />
<glyph unicode="&#x2013;" horiz-adv-x="1269" d="M84 612q0 -20 20 -20h1059q20 0 21 20v246q0 20 -21 21h-1059q-20 0 -20 -21v-246z" />
<glyph unicode="&#x2014;" horiz-adv-x="1124" d="M84 541q0 -20 20 -21h914q20 0 20 21v245q0 20 -20 21h-914q-20 0 -20 -21v-245z" />
<glyph unicode="&#x2018;" horiz-adv-x="436" d="M59 1032q0 -20 21 -20h256q20 0 20 20v256q0 20 -20 21h-55h-9q-4 0 -6 2q-4 4 2 14l68 143q6 12 -12 13h-109q-12 0 -16 -11l-138 -170q-2 -4 -2 -12v-256z" />
<glyph unicode="&#x2019;" horiz-adv-x="434" d="M76 1192q0 -20 20 -21h56h8t6 -2q4 -4 -2 -14l-68 -143q-6 -12 13 -13h108q12 0 16 11l138 170q2 4 2 12v256q0 20 -21 20h-256q-20 0 -20 -20v-256z" />
<glyph unicode="&#x201a;" horiz-adv-x="434" d="M76 20q0 -20 20 -20h56h8t6 -2q4 -4 -2 -14l-68 -144q-6 -12 13 -12h108q12 0 16 10l138 170q2 4 2 12v256q0 20 -21 21h-256q-20 -1 -20 -21v-256z" />
<glyph unicode="&#x201c;" horiz-adv-x="817" d="M74 1032q0 -20 20 -20h256q21 0 21 20v256q0 20 -21 21h-55h-8t-6 2q-4 4 2 14l67 143q6 12 -12 13h-109q-12 0 -16 -11l-137 -170q-2 -4 -2 -12v-256zM438 1032q0 -20 21 -20h256q20 0 20 20v256q0 20 -20 21h-56h-8t-6 2q-4 4 2 14l68 143q6 12 -13 13h-108 q-12 0 -16 -11l-138 -170q-2 -4 -2 -12v-256z" />
<glyph unicode="&#x201d;" horiz-adv-x="815" d="M80 1192q0 -20 20 -21h56h8t6 -2q4 -4 -2 -14l-68 -143q-6 -12 13 -13h108q12 0 17 11l137 170q2 4 2 12v256q0 20 -21 20h-256q-20 0 -20 -20v-256zM444 1192q0 -20 21 -21h55h8t7 -2q4 -4 -3 -14l-67 -143q-6 -12 12 -13h109q12 0 16 11l137 170q2 4 2 12v256 q0 20 -20 20h-256q-21 0 -21 -20v-256z" />
<glyph unicode="&#x201e;" horiz-adv-x="815" d="M80 20q0 -20 20 -20h56h8t6 -2q4 -4 -2 -14l-68 -144q-6 -12 13 -12h108q12 0 17 10l137 170q2 4 2 12v256q0 20 -21 21h-256q-20 -1 -20 -21v-256zM444 20q0 -20 21 -20h55h8t7 -2q4 -4 -3 -14l-67 -144q-6 -12 12 -12h109q12 0 16 10l137 170q2 4 2 12v256q0 20 -20 21 h-256q-21 -1 -21 -21v-256z" />
<glyph unicode="&#x2022;" horiz-adv-x="792" d="M59 737q0 143 96.5 239.5t241.5 96.5q139 0 237.5 -98.5t98.5 -237.5q0 -143 -98 -241.5t-238 -98.5q-145 0 -241.5 97.5t-96.5 242.5z" />
<glyph unicode="&#x2026;" horiz-adv-x="1480" d="M84 0v260h289v-260h-289zM596 0v260h289v-260h-289zM1108 0v260h289v-260h-289z" />
<glyph unicode="&#x202f;" horiz-adv-x="388" />
<glyph unicode="&#x2039;" horiz-adv-x="446" d="M18 465v227q0 12 4.5 19.5t14.5 15.5l303 260q4 4 10 4q10 0 10 -12v-203q0 -12 -4 -19t-10 -14l-168 -145q-8 -6 -14 -12t-6 -11q0 -4 6 -10t14 -12l166 -147q16 -12 16 -37v-203q0 -10 -8 -10q-6 0 -12 6l-301 258q-10 10 -15.5 19.5t-5.5 25.5z" />
<glyph unicode="&#x203a;" horiz-adv-x="444" d="M84 166v203q0 12 4 19t10 13l168 146q8 6 14.5 12t6.5 10t-6.5 10.5t-14.5 12.5l-166 147q-16 12 -16 37v203q0 10 8 10q6 0 12 -6l302 -258q10 -10 15 -19.5t5 -25.5v-227q0 -20 -18 -35l-304 -260q-4 -4 -10 -4q-10 0 -10 12z" />
<glyph unicode="&#x205f;" horiz-adv-x="485" />
<glyph unicode="&#x2122;" horiz-adv-x="1859" d="M66 1319v137q0 12 12 12h616q12 0 13 -12v-137q0 -12 -13 -12h-205q-12 0 -12 -13v-710q0 -12 -12 -13h-158q-12 0 -12 9v714q0 12 -12 13h-158h-2h-45q-12 0 -12 12zM836 584v743q0 41 15 68.5t39.5 44t56.5 22.5t67 6q53 0 87 -6t55.5 -27.5t34.5 -65.5t26 -120 l67 -413q4 -12 9 -40t12 -28q2 0 6 8t7 19.5t5 21.5t2 14l66 424q10 72 23 115t36 64.5t57.5 27.5t89.5 6q78 0 128.5 -30.5t50.5 -108.5v-745q0 -12 -13 -13h-157q-12 0 -13 13v682q0 2 -1 10t-7 8q-10 0 -14 -12q-4 -8 -7 -31.5t-8 -34.5q-8 -31 -15 -66.5t-18.5 -92 t-29.5 -144.5t-49 -225q-4 -20 -12.5 -40t-24.5 -34t-43 -23.5t-66 -9.5q-72 0 -97 30t-34 61l-127 595q0 4 -3 15.5t-9 13.5h-6q-4 0 -4 -8v-694q0 -12 -12 -13h-158q-12 0 -12 13z" />
<glyph unicode="&#x25fc;" horiz-adv-x="1064" d="M0 0v1065h1065v-1065h-1065z" />
</font>
</defs>
</svg>
